<?xml version="1.0" encoding="UTF-8" standalone="no"?>
<svg xmlns:rdf="http://www.w3.org/1999/02/22-rdf-syntax-ns#" xmlns="http://www.w3.org/2000/svg" height="100" width="100" version="1.1" xmlns:cc="http://creativecommons.org/ns#" xmlns:dc="http://purl.org/dc/elements/1.1/" viewBox="0 0 100 100">
<g transform="translate(0 -952.362)">
<circle cx="50" cy="1002.36" r="50"/>
<circle cx="50" cy="1002.36" r="46" fill="#eee"/>
</g>
<circle cx="50" cy="50" r="35" fill="#68c0c1"/>
<g stroke="#eee" stroke-width="6" fill="none">
<path d="m14.88 41.32h0.64q0.28 0 1.68-1.32 0.48-0.44 0.96-0.8v-0.04q0-2.92-1.44-4.68-0.72-1.04-0.72-1.72 0-1.28 2.16-1.28 2 0 3.76 1.4 1.72 1.28 1.72 3.44v1.88q0.8 0.24 1.48 0.68 1.32 1.04 1.32 2.16 0 1.72-2.16 1.72l-0.64 0.24v4.68q0.68-0.44 1.24-0.8 0.76-0.56 1.12-0.56 0.76 0 0.76 1.12 0 2.84-3.12 5.6v9.88q0 4.68-2.48 4.68-1.6 0-4.76-5.64-3.44-6.32-3.56-7.4-0.28-0.52-0.28-1.04 0-0.72 1.24-1.2 2.2-0.72 4.36-1.72v-5.68l-1.4 0.48q-2 0-3.2-0.76-1-0.6-1-1.28 0-0.64 0.68-1.2 0.96-0.84 1.64-0.84zm3.28 15.08q-0.92 0.24-1.72 0.24-0.96 0-1.72-0.4 2.24 3.24 2.68 3.24 0.76 0 0.76-1.12v-1.96zm15.48-24.76q2.36 0 4.28 0.92 1.96 1.08 1.96 2.36 0 1.56-2.72 2.44-5.92 1.96-6.28 4.4l0.28 0.04q0.36 0 1.8-0.88 5.04-3 7.88-3 3.72 0 6.28 2.4 2.32 2.4 2.32 7.12 0 15-0.8 17.52-0.76 2-2.96 2-1.48 0-2.12-0.76-4.36 0.08-6.04 0.52-2.36 0.4-3.88 0.4-3.28 0-4.72-1.6-1.68-2.08-1.68-5.88 0-3.48 0.24-5.16 0.24-1.96 0.24-5.32 0-2.28-0.44-4.12-0.52-1.32-0.52-2.92 0-1.96 3.6-4.96 1.4-1.12 1.4-1.92 0-0.56-0.48-1.08-0.44-0.48-0.44-1.12 0-0.36 0.64-0.84 0.56-0.56 2.16-0.56zm8.8 28.84q0.04-2.36 0.12-5.48 0-0.4 0.04-0.8-6.92 1.88-9.32 2.08-0.12 1.48-0.12 3.36 0 1.68 2.84 1.68 1.28 0 3.56-0.44 1.52-0.28 2.88-0.4zm-8.8-9.48 0.16 0.04q0.36 0 1.32-0.52 4.8-2.16 6.48-2.16 0.56 0 1.12 0.08 0-1.64 0-3.36 0-1.88-2.2-1.88-1.76 0-7.28 3.4 0.4 1.24 0.4 2.56 0 1.04 0 1.84z"/>
<path d="m67.44 31.48q3.76 0 7.24 1.56 2.12 1.08 2.12 2.52 0 1.72-2.36 2.04-2.76 0.32-5.16 0.76 1.16 0.84 2.16 2.28 3.48-0.72 5.56-0.72 4.2 0 6.64 1.56 1.92 1.32 1.92 2.84 0 1.88-2.04 1.88-1.44 0-4.48-0.12-2.16-0.04-3.92-0.04-0.56 0-1.44 0.08 0.28 1.32 0.48 2.8 1.24-0.08 2.32-0.08 4.96 0 7.96 1.6 2.84 1.6 2.84 3.08 0 2.2-2.36 2.2-1.92 0-4.08-0.28-2.48-0.2-6.08-0.2-0.12 0-0.16 0 0 0.48 0 0.88 0 6.84-1.08 9.44-0.8 2.2-3.12 2.2-4.12 0-11.64-5.28-6.84-5.28-7.36-7.04-0.4-0.44-0.4-0.68 0-1.08 1.24-1.88 1.48-0.76 2.52-0.76 0.16 0 0.44 0.08 0.36 0.08 0.64 0.08 0.76 0 2.84-0.56 4.64-1.24 8.56-1.92-0.08-1.48-0.24-2.56-6.72 1.28-10.84 1.28-4.36 0-4.36-3.44 0-2 1.88-3.72 2.2-1.92 10.36-5.36 1.52-0.64 1.52-1.24 0-0.24-0.48-0.76-0.32-0.36-0.32-0.8 0-1.72 2.68-1.72zm-1.88 10.64q-0.68-1.32-1.52-2-0.28-0.24-0.44-0.48-2.28 0.64-4.2 1.44-4.48 1.88-4.48 2.92 0 0.64 0.8 0.64 1.96 0 4.8-1 2.72-0.84 5.04-1.52zm-10.8 14.72q2 1.24 4.92 2.6 5.04 2.36 6.64 2.36 1.24 0 1.24-1.56 0-2.56-0.04-4.6-2.64 0.24-5.32 0.68-4 0.64-5.4 0.64-1.12 0-2.04-0.12z"/>
</g>
<g>
<path d="m14.88 41.32h0.64q0.28 0 1.68-1.32 0.48-0.44 0.96-0.8v-0.04q0-2.92-1.44-4.68-0.72-1.04-0.72-1.72 0-1.28 2.16-1.28 2 0 3.76 1.4 1.72 1.28 1.72 3.44v1.88q0.8 0.24 1.48 0.68 1.32 1.04 1.32 2.16 0 1.72-2.16 1.72l-0.64 0.24v4.68q0.68-0.44 1.24-0.8 0.76-0.56 1.12-0.56 0.76 0 0.76 1.12 0 2.84-3.12 5.6v9.88q0 4.68-2.48 4.68-1.6 0-4.76-5.64-3.44-6.32-3.56-7.4-0.28-0.52-0.28-1.04 0-0.72 1.24-1.2 2.2-0.72 4.36-1.72v-5.68l-1.4 0.48q-2 0-3.2-0.76-1-0.6-1-1.28 0-0.64 0.68-1.2 0.96-0.84 1.64-0.84zm3.28 15.08q-0.92 0.24-1.72 0.24-0.96 0-1.72-0.4 2.24 3.24 2.68 3.24 0.76 0 0.76-1.12v-1.96zm15.48-24.76q2.36 0 4.28 0.92 1.96 1.08 1.96 2.36 0 1.56-2.72 2.44-5.92 1.96-6.28 4.4l0.28 0.04q0.36 0 1.8-0.88 5.04-3 7.88-3 3.72 0 6.28 2.4 2.32 2.4 2.32 7.12 0 15-0.8 17.52-0.76 2-2.96 2-1.48 0-2.12-0.76-4.36 0.08-6.04 0.52-2.36 0.4-3.88 0.4-3.28 0-4.72-1.6-1.68-2.08-1.68-5.88 0-3.48 0.24-5.16 0.24-1.96 0.24-5.32 0-2.28-0.44-4.12-0.52-1.32-0.52-2.92 0-1.96 3.6-4.96 1.4-1.12 1.4-1.92 0-0.56-0.48-1.08-0.44-0.48-0.44-1.12 0-0.36 0.64-0.84 0.56-0.56 2.16-0.56zm8.8 28.84q0.04-2.36 0.12-5.48 0-0.4 0.04-0.8-6.92 1.88-9.32 2.08-0.12 1.48-0.12 3.36 0 1.68 2.84 1.68 1.28 0 3.56-0.44 1.52-0.28 2.88-0.4zm-8.8-9.48 0.16 0.04q0.36 0 1.32-0.52 4.8-2.16 6.48-2.16 0.56 0 1.12 0.08 0-1.64 0-3.36 0-1.88-2.2-1.88-1.76 0-7.28 3.4 0.4 1.24 0.4 2.56 0 1.04 0 1.84z"/>
<path d="m67.44 31.48q3.76 0 7.24 1.56 2.12 1.08 2.12 2.52 0 1.72-2.36 2.04-2.76 0.32-5.16 0.76 1.16 0.84 2.16 2.28 3.48-0.72 5.56-0.72 4.2 0 6.64 1.56 1.92 1.32 1.92 2.84 0 1.88-2.04 1.88-1.44 0-4.48-0.12-2.16-0.04-3.92-0.04-0.56 0-1.44 0.08 0.28 1.32 0.48 2.8 1.24-0.08 2.32-0.08 4.96 0 7.96 1.6 2.84 1.6 2.84 3.08 0 2.2-2.36 2.2-1.92 0-4.08-0.28-2.48-0.2-6.08-0.2-0.12 0-0.16 0 0 0.48 0 0.88 0 6.84-1.08 9.44-0.8 2.2-3.12 2.2-4.12 0-11.64-5.28-6.84-5.28-7.36-7.04-0.4-0.44-0.4-0.68 0-1.08 1.24-1.88 1.48-0.76 2.52-0.76 0.16 0 0.44 0.08 0.36 0.08 0.64 0.08 0.76 0 2.84-0.56 4.64-1.24 8.56-1.92-0.08-1.48-0.24-2.56-6.72 1.28-10.84 1.28-4.36 0-4.36-3.44 0-2 1.88-3.72 2.2-1.92 10.36-5.36 1.52-0.64 1.52-1.24 0-0.24-0.48-0.76-0.32-0.36-0.32-0.8 0-1.72 2.68-1.72zm-1.88 10.64q-0.68-1.32-1.52-2-0.28-0.24-0.44-0.48-2.28 0.64-4.2 1.44-4.48 1.88-4.48 2.92 0 0.64 0.8 0.64 1.96 0 4.8-1 2.72-0.84 5.04-1.52zm-10.8 14.72q2 1.24 4.92 2.6 5.04 2.36 6.64 2.36 1.24 0 1.24-1.56 0-2.56-0.04-4.6-2.64 0.24-5.32 0.68-4 0.64-5.4 0.64-1.12 0-2.04-0.12z"/>
</g>
</svg>
