<?xml version="1.0" encoding="UTF-8" standalone="no"?>
<svg xmlns:rdf="http://www.w3.org/1999/02/22-rdf-syntax-ns#" xmlns="http://www.w3.org/2000/svg" height="100" width="100" version="1.1" xmlns:cc="http://creativecommons.org/ns#" xmlns:dc="http://purl.org/dc/elements/1.1/" viewBox="0 0 100 100">
<g transform="translate(0 -952.362)">
<circle cx="50" cy="1002.36" r="50"/>
<circle cx="50" cy="1002.36" r="46" fill="#eee"/>
</g>
<circle cx="50" cy="50" r="35" fill="#f0371b"/>
<g stroke="#eee" stroke-width="6" fill="none">
<path d="m46.7253 40.42q0 1.84-3.12 1.84-1.76 0-6.4 0.2-4.6 0.24-6.88 0.24-1.16 0-1.6-0.04 0.08 1 0.08 1.76v3.88q7.16-1.48 10.04-1.48 2.36 0 4.16 0.92 2.28 1.2 2.28 3.44 0 2.4-3.08 2.44-0.88 0-2.48-0.08-1.72-0.12-2.52-0.12-1.24 0-3.68 0.08-2.4 0.08-3.64 0.08-0.64 0-1.16-0.08-0.12 6.16-0.48 7.72-0.6 2.52-2.56 2.52-3.8 0-3.8-6.24 0-2 0.36-7.28 0.4-5.28 0.4-7.96 0-2.08-0.72-3-0.32-0.4-0.32-1.04 0-0.8 0.48-1.36 0.52-0.6 1.36-0.6 1.92 0 3.8 2.04 1.48-0.16 6.08-1.04 3.76-0.72 6.12-0.72 2.16 0 4.4 0.88 2.88 1.12 2.88 3z"/>
<path d="m69.3359 60.74q0 1.28-0.88 2.04-0.84 0.72-2.16 0.72-2.24 0-3.52-2.2-1.52 1.04-3.64 1.72-2.12 0.72-3.88 0.72-3.32 0-5.44-2.36-2.08-2.36-2.08-5.64 0-1.16 0.24-3.52 0.28-2.36 0.28-2.72 0-2.84-0.76-4.52-0.4-0.88-0.4-1.36 0-1.84 2.08-1.84 2.48 0 3.76 2.32 1.04 1.84 1.04 4.32 0 0.32-0.2 2.88t-0.2 3.76q0 1.52 0.84 2.52t2.28 1q1.84 0 4.96-2-0.08-0.88-0.08-1.96 0-1.56 0.16-4.72 0.2-3.16 0.2-3.56 0-0.64-0.24-1.68t-0.24-1.44q0-1.68 1.84-1.68 4.64 0 4.64 6 0 0.96-0.12 3.24-0.16 2.28-0.16 3.4 0 4 1.08 5.32 0.6 0.72 0.6 1.24z"/>
<path d="m77.9547 48.5q0 3.28-0.12 4.16-0.44 3.12-2.24 3.12-1.84 0-2.52-1.52-0.4-1-0.4-3.08 0-1.04 0.04-3.12 0.08-2.08 0.08-3.12 0-4-0.88-5.48-0.36-0.6-0.36-1.12 0-2.04 2.4-2.04 2.56 0 3.44 2.88 0.48 1.52 0.56 5 0 0 0 4.32zm0.44 12.88q0 0.8-0.8 1.56-0.76 0.8-1.52 0.8-1.24 0-2.56-1.2-1.28-1.24-1.28-2.56 0-0.96 0.64-1.48 0.68-0.52 1.56-0.52 1.28 0 2.56 0.96 1.4 1.08 1.4 2.44z"/>
</g>
<g>
<path d="m46.7253 40.42q0 1.84-3.12 1.84-1.76 0-6.4 0.2-4.6 0.24-6.88 0.24-1.16 0-1.6-0.04 0.08 1 0.08 1.76v3.88q7.16-1.48 10.04-1.48 2.36 0 4.16 0.92 2.28 1.2 2.28 3.44 0 2.4-3.08 2.44-0.88 0-2.48-0.08-1.72-0.12-2.52-0.12-1.24 0-3.68 0.08-2.4 0.08-3.64 0.08-0.64 0-1.16-0.08-0.12 6.16-0.48 7.72-0.6 2.52-2.56 2.52-3.8 0-3.8-6.24 0-2 0.36-7.28 0.4-5.28 0.4-7.96 0-2.08-0.72-3-0.32-0.4-0.32-1.04 0-0.8 0.48-1.36 0.52-0.6 1.36-0.6 1.92 0 3.8 2.04 1.48-0.16 6.08-1.04 3.76-0.72 6.12-0.72 2.16 0 4.4 0.88 2.88 1.12 2.88 3z"/>
<path d="m69.3359 60.74q0 1.28-0.88 2.04-0.84 0.72-2.16 0.72-2.24 0-3.52-2.2-1.52 1.04-3.64 1.72-2.12 0.72-3.88 0.72-3.32 0-5.44-2.36-2.08-2.36-2.08-5.64 0-1.16 0.24-3.52 0.28-2.36 0.28-2.72 0-2.84-0.76-4.52-0.4-0.88-0.4-1.36 0-1.84 2.08-1.84 2.48 0 3.76 2.32 1.04 1.84 1.04 4.32 0 0.32-0.2 2.88t-0.2 3.76q0 1.52 0.84 2.52t2.28 1q1.84 0 4.96-2-0.08-0.88-0.08-1.96 0-1.56 0.16-4.72 0.2-3.16 0.2-3.56 0-0.64-0.24-1.68t-0.24-1.44q0-1.68 1.84-1.68 4.64 0 4.64 6 0 0.96-0.12 3.24-0.16 2.28-0.16 3.4 0 4 1.08 5.32 0.6 0.72 0.6 1.24z"/>
<path d="m77.9547 48.5q0 3.28-0.12 4.16-0.44 3.12-2.24 3.12-1.84 0-2.52-1.52-0.4-1-0.4-3.08 0-1.04 0.04-3.12 0.08-2.08 0.08-3.12 0-4-0.88-5.48-0.36-0.6-0.36-1.12 0-2.04 2.4-2.04 2.56 0 3.44 2.88 0.48 1.52 0.56 5 0 0 0 4.32zm0.44 12.88q0 0.8-0.8 1.56-0.76 0.8-1.52 0.8-1.24 0-2.56-1.2-1.28-1.24-1.28-2.56 0-0.96 0.64-1.48 0.68-0.52 1.56-0.52 1.28 0 2.56 0.96 1.4 1.08 1.4 2.44z"/>
</g>
</svg>
