<?xml version="1.0" encoding="UTF-8" standalone="no"?>
<svg xmlns:rdf="http://www.w3.org/1999/02/22-rdf-syntax-ns#" xmlns="http://www.w3.org/2000/svg" height="100" width="100" version="1.1" xmlns:cc="http://creativecommons.org/ns#" xmlns:dc="http://purl.org/dc/elements/1.1/" viewBox="0 0 100 100">
<g transform="translate(0 -952.362)">
<circle cx="50" cy="1002.36" r="50"/>
<circle cx="50" cy="1002.36" r="46" fill="#eee"/>
</g>
<circle cx="50" cy="50" r="35" fill="#f0371b"/>
<g stroke="#eee" stroke-width="6" fill="none">
<path d="m30.3166 41.9169q0 1.5525-2.6325 1.5525-1.485 0-5.4 0.16875-3.88125 0.2025-5.805 0.2025-0.97875 0-1.35-0.03375 0.0675 0.84375 0.0675 1.485v3.27375q6.04125-1.24875 8.47125-1.24875 1.99125 0 3.51 0.77625 1.92375 1.0125 1.92375 2.9025 0 2.025-2.59875 2.05875-0.7425 0-2.0925-0.0675-1.45125-0.10125-2.12625-0.10125-1.04625 0-3.105 0.0675-2.025 0.0675-3.07125 0.0675-0.54 0-0.97875-0.0675-0.10125 5.1975-0.405 6.51375-0.50625 2.12625-2.16 2.12625-3.20625 0-3.20625-5.265 0-1.6875 0.30375-6.1425 0.3375-4.455 0.3375-6.71625 0-1.755-0.6075-2.53125-0.27-0.3375-0.27-0.8775 0-0.675 0.405-1.1475 0.43875-0.50625 1.1475-0.50625 1.62 0 3.20625 1.72125 1.24875-0.135 5.13-0.8775 3.1725-0.6075 5.16375-0.6075 1.8225 0 3.7125 0.7425 2.43 0.945 2.43 2.53125z"/>
<path d="m49.0818 59.0619q0 1.08-0.7425 1.72125-0.70875 0.6075-1.8225 0.6075-1.89 0-2.97-1.85625-1.2825 0.8775-3.07125 1.45125-1.78875 0.6075-3.27375 0.6075-2.80125 0-4.59-1.99125-1.755-1.99125-1.755-4.75875 0-0.97875 0.2025-2.97 0.23625-1.99125 0.23625-2.295 0-2.39625-0.64125-3.81375-0.3375-0.7425-0.3375-1.1475 0-1.5525 1.755-1.5525 2.0925 0 3.1725 1.9575 0.8775 1.5525 0.8775 3.645 0 0.27-0.16875 2.43t-0.16875 3.1725q0 1.2825 0.70875 2.12625t1.92375 0.84375q1.5525 0 4.185-1.6875-0.0675-0.7425-0.0675-1.65375 0-1.31625 0.135-3.9825 0.16875-2.66625 0.16875-3.00375 0-0.54-0.2025-1.4175t-0.2025-1.215q0-1.4175 1.5525-1.4175 3.915 0 3.915 5.0625 0 0.81-0.10125 2.73375-0.135 1.92375-0.135 2.86875 0 3.375 0.91125 4.48875 0.50625 0.6075 0.50625 1.04625z"/>
<path d="m71.7351 46.3381q0 0.64125-0.57375 2.43l-2.12625 6.64875q-1.99125 6.17625-4.21875 6.17625-1.6875 0-2.565-1.6875-0.4725-0.8775-0.945-3.105-0.16875-0.77625-1.0125-4.725l-1.755 4.82625q-0.77625 2.19375-1.215 2.93625-1.0125 1.755-2.32875 1.755-1.2825 0-2.295-1.78875-0.50625-0.91125-0.54-1.62 0-0.50625-0.16875-1.24875-0.405-1.9575-1.45125-7.29-0.675-3.375-1.45125-4.32-0.3375-0.405-0.3375-0.81 0-0.7425 0.50625-1.215 0.54-0.43875 1.2825-0.43875 1.04625 0 2.025 0.64125 1.0125 0.64125 1.485 1.5525 0.50625 0.8775 1.0125 3.915l0.6075 3.7125 2.16-7.4925q0.675-2.32875 2.73375-2.32875 1.18125 0 1.89 1.485 0.2025 0.4725 0.77625 2.53125l1.78875 6.58125 1.5525-5.535q0.43875-1.5525 0.43875-1.9575 0-0.2025-0.16875-0.64125t-0.16875-0.675q0-1.5525 1.65375-1.5525 1.18125 0 2.295 1.04625t1.11375 2.19375z"/>
<path d="m90.8784 59.6019q0 1.99125-2.43 1.99125-0.77625 0-1.6875-0.405-1.0125-0.43875-1.45125-1.11375-1.35 0.675-3.47625 1.11375-1.99125 0.405-3.51 0.405-2.4975 0-4.48875-1.4175-2.26125-1.58625-2.26125-4.01625 0-3.34125 3.4425-5.0625 1.9575-1.0125 6.1425-1.72125 2.59875-0.43875 3.51-1.11375-0.2025-1.38375-1.24875-1.38375-0.70875 0-4.21875 1.04625-3.8475 1.1475-4.6575 1.1475-0.91125 0-1.755-0.50625-1.0125-0.6075-1.0125-1.5525 0-1.1475 1.62-2.12625 0.50625-0.30375 1.1475-0.30375 0.30375 0 1.0125-0.23625 4.455-1.485 7.25625-1.485 7.0875 0 7.0875 8.3025 0 0.30375-0.10125 2.19375-0.135 1.85625-0.135 2.80125 0 1.11375 0.77625 2.16 0.43875 0.57375 0.43875 1.2825zm-6.345-7.18875q-1.31625 0.50625-3.00375 0.91125-2.12625 0.50625-2.80125 0.77625-1.65375 0.7425-1.65375 2.05875 0 1.18125 3.00375 1.18125 2.12625 0 4.28625-0.7425 0-2.19375 0.16875-4.185z"/>
</g>
<g>
<path d="m30.3166 41.9169q0 1.5525-2.6325 1.5525-1.485 0-5.4 0.16875-3.88125 0.2025-5.805 0.2025-0.97875 0-1.35-0.03375 0.0675 0.84375 0.0675 1.485v3.27375q6.04125-1.24875 8.47125-1.24875 1.99125 0 3.51 0.77625 1.92375 1.0125 1.92375 2.9025 0 2.025-2.59875 2.05875-0.7425 0-2.0925-0.0675-1.45125-0.10125-2.12625-0.10125-1.04625 0-3.105 0.0675-2.025 0.0675-3.07125 0.0675-0.54 0-0.97875-0.0675-0.10125 5.1975-0.405 6.51375-0.50625 2.12625-2.16 2.12625-3.20625 0-3.20625-5.265 0-1.6875 0.30375-6.1425 0.3375-4.455 0.3375-6.71625 0-1.755-0.6075-2.53125-0.27-0.3375-0.27-0.8775 0-0.675 0.405-1.1475 0.43875-0.50625 1.1475-0.50625 1.62 0 3.20625 1.72125 1.24875-0.135 5.13-0.8775 3.1725-0.6075 5.16375-0.6075 1.8225 0 3.7125 0.7425 2.43 0.945 2.43 2.53125z"/>
<path d="m49.0818 59.0619q0 1.08-0.7425 1.72125-0.70875 0.6075-1.8225 0.6075-1.89 0-2.97-1.85625-1.2825 0.8775-3.07125 1.45125-1.78875 0.6075-3.27375 0.6075-2.80125 0-4.59-1.99125-1.755-1.99125-1.755-4.75875 0-0.97875 0.2025-2.97 0.23625-1.99125 0.23625-2.295 0-2.39625-0.64125-3.81375-0.3375-0.7425-0.3375-1.1475 0-1.5525 1.755-1.5525 2.0925 0 3.1725 1.9575 0.8775 1.5525 0.8775 3.645 0 0.27-0.16875 2.43t-0.16875 3.1725q0 1.2825 0.70875 2.12625t1.92375 0.84375q1.5525 0 4.185-1.6875-0.0675-0.7425-0.0675-1.65375 0-1.31625 0.135-3.9825 0.16875-2.66625 0.16875-3.00375 0-0.54-0.2025-1.4175t-0.2025-1.215q0-1.4175 1.5525-1.4175 3.915 0 3.915 5.0625 0 0.81-0.10125 2.73375-0.135 1.92375-0.135 2.86875 0 3.375 0.91125 4.48875 0.50625 0.6075 0.50625 1.04625z"/>
<path d="m71.7351 46.3381q0 0.64125-0.57375 2.43l-2.12625 6.64875q-1.99125 6.17625-4.21875 6.17625-1.6875 0-2.565-1.6875-0.4725-0.8775-0.945-3.105-0.16875-0.77625-1.0125-4.725l-1.755 4.82625q-0.77625 2.19375-1.215 2.93625-1.0125 1.755-2.32875 1.755-1.2825 0-2.295-1.78875-0.50625-0.91125-0.54-1.62 0-0.50625-0.16875-1.24875-0.405-1.9575-1.45125-7.29-0.675-3.375-1.45125-4.32-0.3375-0.405-0.3375-0.81 0-0.7425 0.50625-1.215 0.54-0.43875 1.2825-0.43875 1.04625 0 2.025 0.64125 1.0125 0.64125 1.485 1.5525 0.50625 0.8775 1.0125 3.915l0.6075 3.7125 2.16-7.4925q0.675-2.32875 2.73375-2.32875 1.18125 0 1.89 1.485 0.2025 0.4725 0.77625 2.53125l1.78875 6.58125 1.5525-5.535q0.43875-1.5525 0.43875-1.9575 0-0.2025-0.16875-0.64125t-0.16875-0.675q0-1.5525 1.65375-1.5525 1.18125 0 2.295 1.04625t1.11375 2.19375z"/>
<path d="m90.8784 59.6019q0 1.99125-2.43 1.99125-0.77625 0-1.6875-0.405-1.0125-0.43875-1.45125-1.11375-1.35 0.675-3.47625 1.11375-1.99125 0.405-3.51 0.405-2.4975 0-4.48875-1.4175-2.26125-1.58625-2.26125-4.01625 0-3.34125 3.4425-5.0625 1.9575-1.0125 6.1425-1.72125 2.59875-0.43875 3.51-1.11375-0.2025-1.38375-1.24875-1.38375-0.70875 0-4.21875 1.04625-3.8475 1.1475-4.6575 1.1475-0.91125 0-1.755-0.50625-1.0125-0.6075-1.0125-1.5525 0-1.1475 1.62-2.12625 0.50625-0.30375 1.1475-0.30375 0.30375 0 1.0125-0.23625 4.455-1.485 7.25625-1.485 7.0875 0 7.0875 8.3025 0 0.30375-0.10125 2.19375-0.135 1.85625-0.135 2.80125 0 1.11375 0.77625 2.16 0.43875 0.57375 0.43875 1.2825zm-6.345-7.18875q-1.31625 0.50625-3.00375 0.91125-2.12625 0.50625-2.80125 0.77625-1.65375 0.7425-1.65375 2.05875 0 1.18125 3.00375 1.18125 2.12625 0 4.28625-0.7425 0-2.19375 0.16875-4.185z"/>
</g>
</svg>
