<?xml version="1.0" encoding="UTF-8" standalone="no"?>
<svg xmlns:rdf="http://www.w3.org/1999/02/22-rdf-syntax-ns#" xmlns="http://www.w3.org/2000/svg" height="100" width="100" version="1.1" xmlns:cc="http://creativecommons.org/ns#" xmlns:dc="http://purl.org/dc/elements/1.1/" viewBox="0 0 100 100">
<g transform="translate(0 -952.362)">
<circle cx="50" cy="1002.36" r="50"/>
<circle cx="50" cy="1002.36" r="46" fill="#eee"/>
</g>
<circle cx="50" cy="50" r="35" fill="#f0371b"/>
<g stroke="#eee" stroke-width="6" fill="none">
<path d="m23.8 34.76q2 0 3.48 1.52 1.36 1.32 1.36 3.8 0 5.96-2.68 13 0.64 0.92 1.12 1.8 2.36 4 2.48 7.24 0.96 0 2.96-3.48 1.76-2.76 1.76-4.64 0-0.52-0.24-1.04-2.08-0.32-3.52-1.72-1.88-1.92-1.88-4.44 0-2.48 1.12-4.84 1.12-2.4 4.24-5 1.04-0.84 1.04-1.88 0-0.28-0.68-0.56-1.36-0.56-1.36-1 0-0.84 0.96-1.52 0.8-0.52 2.04-0.52 2.4 0 4.72 1.28 2.12 1.28 2.12 2.32 0 2.44-2.04 3.44-5.92 3.12-7.36 4.8-1.2 1.44-1.2 2.72 0 1.56 1.4 1.56 0.52 0 2.16-2.2 5.72-7.36 7.48-7.36 2.6 0 4.24 2.48 1.76 2.56 1.76 6 0 2.92-1.44 4.88-1.36 1.8-3.12 1.8-3.4 0-5.88-1.16 0.32 0.72 0.4 1.68 0.88 0.4 2.04 1.08 3.48 2.12 5.72 5.12 1.96 2.44 1.96 4.4 0 3.12-2.8 3.12-2.12 0-3.16-2.2-1.96-4.68-4.04-7.48-0.56 2.72-1.96 5.4-2.48 4.6-4.44 4.6-2.08 0-3.32-1.4-0.56-0.6-0.88-1.2-0.64 0.4-1.6 0.4-2.08 0-3.12-2.2-0.56-1.52-1.12-2.92-3.48 6.36-5.76 6.36-1.28 0-2.72-1.4-1.8-1.92-1.8-2.96 0-0.8 1.72-0.8 1.76 0 5.48-8.08-2.72-5.24-5.6-8-0.52-0.52-0.52-0.8 0-1.4 1.4-1.4t4.88 2.76q1.04 0.84 1.92 1.68 1.04-3.64 1.04-6.48 0-1.84-1.56-1.84-0.44 0-1 0.24-3.52 2.08-4.48 2.08-2.04 0-2.04-2.32 0-2.36 0.96-2.56 0 0 0.6-0.12 0.4-0.04 1.48-0.4 4.4-1.64 7.28-1.64zm14.92 14.84q2.16-0.12 4.24-0.88 2.4-1.2 2.4-2.2 0-1.16-0.48-2.04-0.6-0.96-1.6-0.96-0.8 0-2.36 2.72-1.24 2-2.2 3.36z"/>
<path d="m52.12 35.08q1.36 0 2.8 1.08 0.2 0.16 0.4 0.36 0.28-0.16 0.64-0.36 2.56-1.08 3.96-1.08 1.56 0 2.6 1.16 1.48 1.64 1.48 4.8v18.32q0.28 0.64 0.28 1.36 0 2.04-2 2.04-1.8 0-3.92 0.36-1.6 0.24-2.2 0.24-4.24-0.4-4.68-4.04 0-1.96 0.2-7.56 0.12-6.08 0.12-12.12 0-1.2-0.64-2.12-0.32-0.6-0.32-1.04 0-1.4 1.28-1.4zm6.72 22.6v-16.64q0-1.4-0.96-1.4-0.52 0-1.56 0.4l-0.16 17.08q0 1.08 0.96 1.08 0.56 0 1.4-0.4 0.2-0.08 0.32-0.12zm18.88-26.36q2.2 0 5.2 1.56 2.16 1.28 2.16 2.2 0 1.56-2.96 1.56-2.96 0.12-5.2 0.32 0.52 0.32 1.04 0.72 0.32 0.32 0.56 0.68 1.88-1.08 3.44-1.08 1.8 0 3.84 1.52 1.64 1.4 1.64 2.4 0 2.4-2.96 5.8-0.92 1.24-1.72 2 1.56 0.36 2.92 1.08 2.04 1.12 2.04 2.52 0 1.96-3.88 2.04-1.96 0.08-3.92 0.28v7.84q0 4.84-3.12 4.84-2.24 0-6.92-2.96-4.16-2.48-4.16-3.32 0-0.12 0.12-0.12t0.56 0.12q5.44 1.6 6.04 1.6 1.08 0 1.08-1.12v-5.92q-2.12 0.32-3.44 0.32-2.8 0-4.4-0.8-1.52-0.76-1.52-1.72 0-0.68 0.84-1.28 0.76-0.44 1.64-0.44 0.12 0 0.4 0.08 0.32 0.08 0.52 0.08 0.72 0 5.8-2.16 0.12-0.04 0.16-0.08v-4.64q-0.56 1-1 1.68-0.16 3.32-4.16 3.32-1.12 0-2.44-2.84-1.32-2.96-1.32-6.52 0-2.08 1.8-4.16 1.36-1.64 9.16-3.24 1-0.16 1.2-0.92 0 0 0.08-0.56 0.16-0.68 0.88-0.68zm1.6 8.96q0.6 2.32 0.6 6.24v1.88q0.08-0.2 0.16-0.36 2.2-4.4 2.2-6.4 0-1.72-0.96-1.72-1 0-2 0.36zm-5.88 2.72q-0.32-2.32-1.64-4.16-0.44-0.56-0.56-1-0.76 0.2-1.2 0.44-1.52 1.04-1.52 2.44 0 1.16 2.2 3.28 0.64 0.6 1 1.08 0.72-0.96 1.72-2.08z"/>
</g>
<g>
<path d="m23.8 34.76q2 0 3.48 1.52 1.36 1.32 1.36 3.8 0 5.96-2.68 13 0.64 0.92 1.12 1.8 2.36 4 2.48 7.24 0.96 0 2.96-3.48 1.76-2.76 1.76-4.64 0-0.52-0.24-1.04-2.08-0.32-3.52-1.72-1.88-1.92-1.88-4.44 0-2.48 1.12-4.84 1.12-2.4 4.24-5 1.04-0.84 1.04-1.88 0-0.28-0.68-0.56-1.36-0.56-1.36-1 0-0.84 0.96-1.52 0.8-0.52 2.04-0.52 2.4 0 4.72 1.28 2.12 1.28 2.12 2.32 0 2.44-2.04 3.44-5.92 3.12-7.36 4.8-1.2 1.44-1.2 2.72 0 1.56 1.4 1.56 0.52 0 2.16-2.2 5.72-7.36 7.48-7.36 2.6 0 4.24 2.48 1.76 2.56 1.76 6 0 2.92-1.44 4.88-1.36 1.8-3.12 1.8-3.4 0-5.88-1.16 0.32 0.72 0.4 1.68 0.88 0.4 2.04 1.08 3.48 2.12 5.72 5.12 1.96 2.44 1.96 4.4 0 3.12-2.8 3.12-2.12 0-3.16-2.2-1.96-4.68-4.04-7.48-0.56 2.72-1.96 5.4-2.48 4.6-4.44 4.6-2.08 0-3.32-1.4-0.56-0.6-0.88-1.2-0.64 0.4-1.6 0.4-2.08 0-3.12-2.2-0.56-1.52-1.12-2.92-3.48 6.36-5.76 6.36-1.28 0-2.72-1.4-1.8-1.92-1.8-2.96 0-0.8 1.72-0.8 1.76 0 5.48-8.08-2.72-5.24-5.6-8-0.52-0.52-0.52-0.8 0-1.4 1.4-1.4t4.88 2.76q1.04 0.84 1.92 1.68 1.04-3.64 1.04-6.48 0-1.84-1.56-1.84-0.44 0-1 0.24-3.52 2.08-4.48 2.08-2.04 0-2.04-2.32 0-2.36 0.96-2.56 0 0 0.6-0.12 0.4-0.04 1.48-0.4 4.4-1.64 7.28-1.64zm14.92 14.84q2.16-0.12 4.24-0.88 2.4-1.2 2.4-2.2 0-1.16-0.48-2.04-0.6-0.96-1.6-0.96-0.8 0-2.36 2.72-1.24 2-2.2 3.36z"/>
<path d="m52.12 35.08q1.36 0 2.8 1.08 0.2 0.16 0.4 0.36 0.28-0.16 0.64-0.36 2.56-1.08 3.96-1.08 1.56 0 2.6 1.16 1.48 1.64 1.48 4.8v18.32q0.28 0.64 0.28 1.36 0 2.04-2 2.04-1.8 0-3.92 0.36-1.6 0.24-2.2 0.24-4.24-0.4-4.68-4.04 0-1.96 0.2-7.56 0.12-6.08 0.12-12.12 0-1.2-0.64-2.12-0.32-0.6-0.32-1.04 0-1.4 1.28-1.4zm6.72 22.6v-16.64q0-1.4-0.96-1.4-0.52 0-1.56 0.4l-0.16 17.08q0 1.08 0.96 1.08 0.56 0 1.4-0.4 0.2-0.08 0.32-0.12zm18.88-26.36q2.2 0 5.2 1.56 2.16 1.28 2.16 2.2 0 1.56-2.96 1.56-2.96 0.12-5.2 0.32 0.52 0.32 1.04 0.72 0.32 0.32 0.56 0.68 1.88-1.08 3.44-1.08 1.8 0 3.84 1.52 1.64 1.4 1.64 2.4 0 2.4-2.96 5.8-0.92 1.24-1.72 2 1.56 0.36 2.92 1.08 2.04 1.12 2.04 2.52 0 1.96-3.88 2.04-1.96 0.08-3.92 0.28v7.84q0 4.84-3.12 4.84-2.24 0-6.92-2.96-4.16-2.48-4.16-3.32 0-0.12 0.12-0.12t0.56 0.12q5.44 1.6 6.04 1.6 1.08 0 1.08-1.12v-5.92q-2.12 0.32-3.44 0.32-2.8 0-4.4-0.8-1.52-0.76-1.52-1.72 0-0.68 0.84-1.28 0.76-0.44 1.64-0.44 0.12 0 0.4 0.08 0.32 0.08 0.52 0.08 0.72 0 5.8-2.16 0.12-0.04 0.16-0.08v-4.64q-0.56 1-1 1.68-0.16 3.32-4.16 3.32-1.12 0-2.44-2.84-1.32-2.96-1.32-6.52 0-2.08 1.8-4.16 1.36-1.64 9.16-3.24 1-0.16 1.2-0.92 0 0 0.08-0.56 0.16-0.68 0.88-0.68zm1.6 8.96q0.6 2.32 0.6 6.24v1.88q0.08-0.2 0.16-0.36 2.2-4.4 2.2-6.4 0-1.72-0.96-1.72-1 0-2 0.36zm-5.88 2.72q-0.32-2.32-1.64-4.16-0.44-0.56-0.56-1-0.76 0.2-1.2 0.44-1.52 1.04-1.52 2.44 0 1.16 2.2 3.28 0.64 0.6 1 1.08 0.72-0.96 1.72-2.08z"/>
</g>
</svg>
