<?xml version="1.0" encoding="UTF-8" standalone="no"?>
<svg xmlns:rdf="http://www.w3.org/1999/02/22-rdf-syntax-ns#" xmlns="http://www.w3.org/2000/svg" height="100" width="100" version="1.1" xmlns:cc="http://creativecommons.org/ns#" xmlns:dc="http://purl.org/dc/elements/1.1/" viewBox="0 0 100 100">
<g transform="translate(0 -952.362)">
<circle cx="50" cy="1002.36" r="50"/>
<circle cx="50" cy="1002.36" r="46" fill="#eee"/>
</g>
<circle cx="50" cy="50" r="35" fill="#f0371b"/>
<g stroke="#eee" stroke-width="6" fill="none">
<path d="m51.6178 58.02q0 2.12-0.6 3.6-0.84 2.12-2.64 2.12-3.4 0-3.4-7.08 0-0.92 0.12-2.52 0.16-1.8 0.16-2.52-1.76 0.56-7.24 0.6-2.4 0-4.16-0.36v0.6q0 5.64-0.32 7.52-0.64 3.76-2.96 3.76-1.88 0-2.8-2.2-0.64-1.56-0.64-3.52 0-1.28 0.32-6.8t0.32-9.2q0-1.72-0.44-2.48-0.32-0.56-0.32-1 0-2.28 2.4-2.28 4.72 0 4.56 7.36l-0.08 3.44q0.88-0.04 4.28-0.6 3.76-0.6 4.84-0.6 1.44 0 2.44 0.52 0-0.2 0.04-1 0-0.64 0-1.08 0-3.44-0.68-5.04-0.28-0.64-0.28-0.96 0-2.04 2.44-2.04 4 0 4.36 5.2 0.28 4.08 0.28 16.56z"/>
<path d="m61.8703 40.1q0 1.2-1.28 1.8-0.96 0.44-2.24 0.44-2.08 0-2.12-1.36 0-0.44-1-1.2-0.96-0.8-0.96-1.88 0-1.64 2.24-1.64 2.36 0 4.16 1.6 1.2 1.08 1.2 2.24zm-0.4 18.56q0 1.84-0.56 3.16-0.76 1.88-2.44 1.88-2 0-2.84-2.76-0.36-1.2-0.36-3.4 0-1.4 0.2-4.24 0.24-2.8 0.24-3.72 0-1.04-0.48-2.2-0.44-1.2-0.44-1.68 0-2.24 2.24-2.24 2.08 0 3.36 2.12 1.08 1.8 1.08 4.04v9.04z"/>
<path d="m72.5422 48.46q0 3.28-0.12 4.16-0.44 3.12-2.24 3.12-1.84 0-2.52-1.52-0.4-1-0.4-3.08 0-1.04 0.04-3.12 0.08-2.08 0.08-3.12 0-4-0.88-5.48-0.36-0.6-0.36-1.12 0-2.04 2.4-2.04 2.56 0 3.44 2.88 0.48 1.52 0.56 5 0 0 0 4.32zm0.44 12.88q0 0.8-0.8 1.56-0.76 0.8-1.52 0.8-1.24 0-2.56-1.2-1.28-1.24-1.28-2.56 0-0.96 0.64-1.48 0.68-0.52 1.56-0.52 1.28 0 2.56 0.96 1.4 1.08 1.4 2.44z"/>
</g>
<g>
<path d="m51.6178 58.02q0 2.12-0.6 3.6-0.84 2.12-2.64 2.12-3.4 0-3.4-7.08 0-0.92 0.12-2.52 0.16-1.8 0.16-2.52-1.76 0.56-7.24 0.6-2.4 0-4.16-0.36v0.6q0 5.64-0.32 7.52-0.64 3.76-2.96 3.76-1.88 0-2.8-2.2-0.64-1.56-0.64-3.52 0-1.28 0.32-6.8t0.32-9.2q0-1.72-0.44-2.48-0.32-0.56-0.32-1 0-2.28 2.4-2.28 4.72 0 4.56 7.36l-0.08 3.44q0.88-0.04 4.28-0.6 3.76-0.6 4.84-0.6 1.44 0 2.44 0.52 0-0.2 0.04-1 0-0.64 0-1.08 0-3.44-0.68-5.04-0.28-0.64-0.28-0.96 0-2.04 2.44-2.04 4 0 4.36 5.2 0.28 4.08 0.28 16.56z"/>
<path d="m61.8703 40.1q0 1.2-1.28 1.8-0.96 0.44-2.24 0.44-2.08 0-2.12-1.36 0-0.44-1-1.2-0.96-0.8-0.96-1.88 0-1.64 2.24-1.64 2.36 0 4.16 1.6 1.2 1.08 1.2 2.24zm-0.4 18.56q0 1.84-0.56 3.16-0.76 1.88-2.44 1.88-2 0-2.84-2.76-0.36-1.2-0.36-3.4 0-1.4 0.2-4.24 0.24-2.8 0.24-3.72 0-1.04-0.48-2.2-0.44-1.2-0.44-1.68 0-2.24 2.24-2.24 2.08 0 3.36 2.12 1.08 1.8 1.08 4.04v9.04z"/>
<path d="m72.5422 48.46q0 3.28-0.12 4.16-0.44 3.12-2.24 3.12-1.84 0-2.52-1.52-0.4-1-0.4-3.08 0-1.04 0.04-3.12 0.08-2.08 0.08-3.12 0-4-0.88-5.48-0.36-0.6-0.36-1.12 0-2.04 2.4-2.04 2.56 0 3.44 2.88 0.48 1.52 0.56 5 0 0 0 4.32zm0.44 12.88q0 0.8-0.8 1.56-0.76 0.8-1.52 0.8-1.24 0-2.56-1.2-1.28-1.24-1.28-2.56 0-0.96 0.64-1.48 0.68-0.52 1.56-0.52 1.28 0 2.56 0.96 1.4 1.08 1.4 2.44z"/>
</g>
</svg>
