<?xml version="1.0" encoding="UTF-8" standalone="no"?>
<svg xmlns:rdf="http://www.w3.org/1999/02/22-rdf-syntax-ns#" xmlns="http://www.w3.org/2000/svg" height="100" width="100" version="1.1" xmlns:cc="http://creativecommons.org/ns#" xmlns:dc="http://purl.org/dc/elements/1.1/" viewBox="0 0 100 100">
<g transform="translate(0 -952.362)">
<circle cx="50" cy="1002.36" r="50"/>
<circle cx="50" cy="1002.36" r="46" fill="#eee"/>
</g>
<circle cx="50" cy="50" r="35" fill="#68c0c1"/>
<g transform="matrix(.347404 0 0 .347404 -81.2359 -133.571)">
<path d="m317.679 491.826s14.743-30.2985 33.3929-6.25c6.42979 8.29102 5.1327 24.0906-3.65436 27.4152-7.39185 2.79671-18.5312-2.17137-18.1512-12.59 0.16466-4.51351 3.75353-8.38492 7.02928-8.64725-5.56308-7.64907-18.6166 0.0721-18.6166 0.0721z" fill-rule="evenodd"/>
<path d="m381.585 470.514s20.2031-16.6675 35.8604-0.50508c-16.1624-30.8096-35.8604 0.50508-35.8604 0.50508z" fill-rule="evenodd"/>
<path d="m383.668 491.679s14.743-30.2985 33.3929-6.25c6.42979 8.29102 5.1327 24.0906-3.65436 27.4152-7.39185 2.79671-18.5312-2.17137-18.1512-12.59 0.16466-4.51351 3.75353-8.38492 7.02928-8.64725-5.56308-7.64907-18.6166 0.0721-18.6166 0.0721z" fill-rule="evenodd"/>
<path d="m312.885 471.039s20.2031-16.6675 35.8604-0.50508c-16.1624-30.8096-35.8604 0.50508-35.8604 0.50508z" fill-rule="evenodd"/>
<ellipse fill-opacity=".4" rx="21.8445" ry="9.59645" cy="520.264" cx="325.395"/>
<ellipse fill-opacity=".4" rx="21.8445" ry="9.59645" cy="523.295" cx="418.203"/>
<path d="m325.269 565.974s26.5195 46.6103 86.8731 31.3147c28.5186-7.22754 38.5749-24.0699 39.7159-36.784 1.14098-12.7141-6.6334-21.2998-6.6334-21.2998s15.818 35.2941-40.2455 49.6887c-47.7297 11.8693-79.7101-22.9197-79.7101-22.9197z" fill-rule="evenodd"/>
</g>
</svg>
