<?xml version="1.0" encoding="UTF-8" standalone="no"?>
<svg xmlns:rdf="http://www.w3.org/1999/02/22-rdf-syntax-ns#" xmlns="http://www.w3.org/2000/svg" height="100" width="100" version="1.1" xmlns:cc="http://creativecommons.org/ns#" xmlns:dc="http://purl.org/dc/elements/1.1/" viewBox="0 0 100 100">
<g transform="translate(0 -952.362)">
<circle cx="50" cy="1002.36" r="50"/>
<circle cx="50" cy="1002.36" r="46" fill="#eee"/>
</g>
<circle cx="50" cy="50" r="35" fill="#f0371b"/>
<g stroke="#eee" stroke-width="6" fill="none">
<path d="m15.04 38.04q1 0 1.8 2.48 0.72 2.28 0.72 10.52 0 2.4-0.6 3.36-0.56 0.84-1.28 0.84-1 0-1.72-1.04-0.96-1.28-0.96-2.88 0-0.92 0.36-2.84 0.44-2.84 0.44-6.2 0-0.96-0.32-2.8 0-1.44 1.56-1.44zm3.12-6.4q2.12 0 4 1.6 1.32 1.16 1.32 6.08v1.32q1.08 0.36 2.88 2.76 1.48 2.08 1.48 4.04 0 2.48-1.68 2.48-1.56 0-2.28-1.6-0.2-0.44-0.36-0.76l0.12 16.6q0 3.44-2.96 3.44-2.52 0-2.52-2.96l-0.16-26.6q0-2.6-1.04-3.8-0.52-0.68-0.52-1.04 0-1.56 1.72-1.56zm10.48 7.2q0.72 0.32 1.4 0.32 0.8 0 2.16-0.64-0.12-1.96-1.48-4-0.68-1-0.68-1.48 0-1.84 2.04-1.84 1.92 0 4.2 2.16 1.2 1.12 1.64 2.68 1.44-0.48 2.28-0.48 3.44 0 6.24 2 2.2 1.56 2.2 4.08 0 2.12-2.32 7.44 0.64 0.24 1.2 0.52 2.04 1.12 2.04 2.52 0 1.96-3.88 2.04-2.04 0.12-4.08 0.36 0.4 0.28 0.72 0.56 6.96 5.6 6.96 8.12 0 4.4-3.76 4.4-1.36 0-3.08-2.48-4.64-6.84-6.92-9.24-0.56 1.88-1.2 3.64-2.96 7.92-6.6 7.92-3.16 0-3.16-4.08 0-1.44 0.8-1.92 0 0 0.84-0.36 1.12-0.56 3-5.44-1.44-0.24-2.44-0.76-1.88-0.96-1.88-2.12 0-0.8 1.04-1.52 0.88-0.52 1.92-0.52 0.2 0 0.56 0.08 0.44 0.08 0.72 0.08 0.36 0 1.8-0.44 0.76-2.8 1.04-6-0.28 0.04-0.52 0.04-2.4 0-3.72-1-1.12-1.04-1.12-2.44 0-1.04 0.6-1.68 0.76-0.52 1.44-0.52zm9.4 2.96q-0.2 3.44-0.76 6.72 1.44-0.36 2.68-0.44 0.4-1 1.12-2.64 1.16-2.6 1.16-3.64 0-1.08-1.08-1.08-0.68 0-3.12 1.08z"/>
<path d="m53.2 40.72h0.48q0.32 0 1.96-0.92 0.08-0.04 0.08-0.04v-0.44q0-2.84-1.76-4.6-0.92-0.96-0.92-1.68 0-1.24 2.04-1.24 2.16 0 4.08 1.32 1.84 1.28 1.84 3.36v1.88q1.72 0.08 3.08 0.96 0.76 0.56 1.04 1.08 0.04-0.04 0.04-0.04 0.84-1.44 0.84-3.4 0-1-0.2-1.92-0.24-0.56-0.24-1.04 0-1.4 1.4-1.4 0.96 0 2.04 1.76 0.28 0.08 0.52 0.12 0.64 0.16 1.32 0.16 1 0 4.48-1.4 2.6-1.12 4.44-1.12 3.16 0 5.88 2.16 2.08 1.8 2.08 4.08 0 1.52-1.8 2.36-2.08 0.92-5.36 0.92-2.2 0-2.2-0.6 0-0.36 0.64-0.76 2.96-1.6 2.96-3.32 0-0.92-2.2-0.92-1.56 0-3.68 0.88-3.16 1.28-4.76 1.28-0.6 0-1.12-0.04 0.04 0.44 0.04 0.84 0 2.6-1.12 4.2-0.92 1.28-2.16 1.28-1.04 0-1.68-0.92-0.32-0.52-0.52-0.92-0.52 0.4-1.56 0.4l-2.2 0.4v4.12q0.8-0.6 1.56-1.2 0.8-0.64 1.12-0.64 0.6 0 0.6 0.92 0 3.16-3.28 6.32v10.56q0 4.52-2.48 4.52-1.44 0-4.36-5.76-2.64-5.32-3.16-6.96-0.44-0.6-0.44-1.16 0-0.88 1.2-1.4 2-0.8 3.96-1.84v-6.56l-0.8 0.12q-1.84 0-2.96-0.72-0.96-0.52-0.96-1.16t0.64-1.12q0.88-0.76 1.56-0.76zm2.52 15.76q-0.96 0.32-1.88 0.32-0.84 0-1.52-0.36 2.16 3.8 2.6 3.8 0.8 0 0.8-1.08v-2.68zm11.24-11.24 0.6 0.16q0.68 0 3.64-1 0.44-0.8 0.44-1.36 0-0.68-0.48-1.32-0.44-0.56-0.44-1 0-1.72 2-1.72 1.76 0 3.68 1.48 1.16 1 1.48 2.28 2.28-0.32 4.56-0.32 1.72 0 3.12 0.92 1.24 1 1.24 2.04 0 1.56-2.04 1.56l-7.92 1q0.96 0.44 1.84 1.16 0.44 0.4 0.72 1.16 1.16-0.36 1.92-0.36 2.4 0 4 0.92 1.64 1.24 1.64 2.36 0 2.16-2.52 2.36-2.4 0.32-4.36 0.76v1.12q3.24 0.04 5.92 1.4 1.88 1.04 1.88 2.36 0 1.64-3.44 1.72-2.16 0.04-4.24 0.2l0.04 1.04q0 3.6-3.12 3.6-2.68 0-2.68-3.12v-1.04q-3.92 0.4-6.08 0.4-2.32 0-3.6-0.68-1.24-0.68-1.24-1.52 0-0.52 0.68-1.04 0.64-0.36 1.36-0.36 0.08 0 0.32 0.08 0.28 0.08 0.44 0.08 0.84 0 6.92-1.88 0.6-0.2 1.08-0.32v-0.76q-1.32 0.16-2.68 0.16-6.08 0-6.08-4.84 0-1.72 1.8-4.04-0.92-0.2-1.56-0.6-0.88-0.52-0.88-1.16t0.6-1.08q0.84-0.8 1.44-0.8zm7.2 7.44q-0.24-1.56-1-2.44-0.6-0.72-0.6-1.08 0-0.2 0.04-0.36-2.84 2.08-2.84 3 0 1.56 2.04 1.56 0.84 0 2.36-0.68z"/>
</g>
<g>
<path d="m15.04 38.04q1 0 1.8 2.48 0.72 2.28 0.72 10.52 0 2.4-0.6 3.36-0.56 0.84-1.28 0.84-1 0-1.72-1.04-0.96-1.28-0.96-2.88 0-0.92 0.36-2.84 0.44-2.84 0.44-6.2 0-0.96-0.32-2.8 0-1.44 1.56-1.44zm3.12-6.4q2.12 0 4 1.6 1.32 1.16 1.32 6.08v1.32q1.08 0.36 2.88 2.76 1.48 2.08 1.48 4.04 0 2.48-1.68 2.48-1.56 0-2.28-1.6-0.2-0.44-0.36-0.76l0.12 16.6q0 3.44-2.96 3.44-2.52 0-2.52-2.96l-0.16-26.6q0-2.6-1.04-3.8-0.52-0.68-0.52-1.04 0-1.56 1.72-1.56zm10.48 7.2q0.72 0.32 1.4 0.32 0.8 0 2.16-0.64-0.12-1.96-1.48-4-0.68-1-0.68-1.48 0-1.84 2.04-1.84 1.92 0 4.2 2.16 1.2 1.12 1.64 2.68 1.44-0.48 2.28-0.48 3.44 0 6.24 2 2.2 1.56 2.2 4.08 0 2.12-2.32 7.44 0.64 0.24 1.2 0.52 2.04 1.12 2.04 2.52 0 1.96-3.88 2.04-2.04 0.12-4.08 0.36 0.4 0.28 0.72 0.56 6.96 5.6 6.96 8.12 0 4.4-3.76 4.4-1.36 0-3.08-2.48-4.64-6.84-6.92-9.24-0.56 1.88-1.2 3.64-2.96 7.92-6.6 7.92-3.16 0-3.16-4.08 0-1.44 0.8-1.92 0 0 0.84-0.36 1.12-0.56 3-5.44-1.44-0.24-2.44-0.76-1.88-0.96-1.88-2.12 0-0.8 1.04-1.52 0.88-0.52 1.92-0.52 0.2 0 0.56 0.08 0.44 0.08 0.72 0.08 0.36 0 1.8-0.44 0.76-2.8 1.04-6-0.28 0.04-0.52 0.04-2.4 0-3.72-1-1.12-1.04-1.12-2.44 0-1.04 0.6-1.68 0.76-0.52 1.44-0.52zm9.4 2.96q-0.2 3.44-0.76 6.72 1.44-0.36 2.68-0.44 0.4-1 1.12-2.64 1.16-2.6 1.16-3.64 0-1.08-1.08-1.08-0.68 0-3.12 1.08z"/>
<path d="m53.2 40.72h0.48q0.32 0 1.96-0.92 0.08-0.04 0.08-0.04v-0.44q0-2.84-1.76-4.6-0.92-0.96-0.92-1.68 0-1.24 2.04-1.24 2.16 0 4.08 1.32 1.84 1.28 1.84 3.36v1.88q1.72 0.08 3.08 0.96 0.76 0.56 1.04 1.08 0.04-0.04 0.04-0.04 0.84-1.44 0.84-3.4 0-1-0.2-1.92-0.24-0.56-0.24-1.04 0-1.4 1.4-1.4 0.96 0 2.04 1.76 0.28 0.08 0.52 0.12 0.64 0.16 1.32 0.16 1 0 4.48-1.4 2.6-1.12 4.44-1.12 3.16 0 5.88 2.16 2.08 1.8 2.08 4.08 0 1.52-1.8 2.36-2.08 0.92-5.36 0.92-2.2 0-2.2-0.6 0-0.36 0.64-0.76 2.96-1.6 2.96-3.32 0-0.92-2.2-0.92-1.56 0-3.68 0.88-3.16 1.28-4.76 1.28-0.6 0-1.12-0.04 0.04 0.44 0.04 0.84 0 2.6-1.12 4.2-0.92 1.28-2.16 1.28-1.04 0-1.68-0.92-0.32-0.52-0.52-0.92-0.52 0.4-1.56 0.4l-2.2 0.4v4.12q0.8-0.6 1.56-1.2 0.8-0.64 1.12-0.64 0.6 0 0.6 0.92 0 3.16-3.28 6.32v10.56q0 4.52-2.48 4.52-1.44 0-4.36-5.76-2.64-5.32-3.16-6.96-0.44-0.6-0.44-1.16 0-0.88 1.2-1.4 2-0.8 3.96-1.84v-6.56l-0.8 0.12q-1.84 0-2.96-0.72-0.96-0.52-0.96-1.16t0.64-1.12q0.88-0.76 1.56-0.76zm2.52 15.76q-0.96 0.32-1.88 0.32-0.84 0-1.52-0.36 2.16 3.8 2.6 3.8 0.8 0 0.8-1.08v-2.68zm11.24-11.24 0.6 0.16q0.68 0 3.64-1 0.44-0.8 0.44-1.36 0-0.68-0.48-1.32-0.44-0.56-0.44-1 0-1.72 2-1.72 1.76 0 3.68 1.48 1.16 1 1.48 2.28 2.28-0.32 4.56-0.32 1.72 0 3.12 0.92 1.24 1 1.24 2.04 0 1.56-2.04 1.56l-7.92 1q0.96 0.44 1.84 1.16 0.44 0.4 0.72 1.16 1.16-0.36 1.92-0.36 2.4 0 4 0.92 1.64 1.24 1.64 2.36 0 2.16-2.52 2.36-2.4 0.32-4.36 0.76v1.12q3.24 0.04 5.92 1.4 1.88 1.04 1.88 2.36 0 1.64-3.44 1.72-2.16 0.04-4.24 0.2l0.04 1.04q0 3.6-3.12 3.6-2.68 0-2.68-3.12v-1.04q-3.92 0.4-6.08 0.4-2.32 0-3.6-0.68-1.24-0.68-1.24-1.52 0-0.52 0.68-1.04 0.64-0.36 1.36-0.36 0.08 0 0.32 0.08 0.28 0.08 0.44 0.08 0.84 0 6.92-1.88 0.6-0.2 1.08-0.32v-0.76q-1.32 0.16-2.68 0.16-6.08 0-6.08-4.84 0-1.72 1.8-4.04-0.92-0.2-1.56-0.6-0.88-0.52-0.88-1.16t0.6-1.08q0.84-0.8 1.44-0.8zm7.2 7.44q-0.24-1.56-1-2.44-0.6-0.72-0.6-1.08 0-0.2 0.04-0.36-2.84 2.08-2.84 3 0 1.56 2.04 1.56 0.84 0 2.36-0.68z"/>
</g>
</svg>
