<?xml version="1.0" encoding="UTF-8" standalone="no"?>
<svg xmlns:rdf="http://www.w3.org/1999/02/22-rdf-syntax-ns#" xmlns="http://www.w3.org/2000/svg" height="100" width="100" version="1.1" xmlns:cc="http://creativecommons.org/ns#" xmlns:dc="http://purl.org/dc/elements/1.1/" viewBox="0 0 100 100">
<g transform="translate(0 -952.362)">
<circle cx="50" cy="1002.36" r="50"/>
<circle cx="50" cy="1002.36" r="46" fill="#eee"/>
</g>
<circle cx="50" cy="50" r="35" fill="#68c0c1"/>
<g stroke="#eee" stroke-width="6" fill="none">
<path d="m15.52 34q1.52 0 2.76 1.12 0.24-0.12 0.52-0.2h1.12q1.04 0 2.88-0.44 12.4-2.84 16.48-2.84 3.72 0 6.84 2.08 2.36 1.88 2.36 4.48 0 6.44-1.2 9.28-0.32 0.68-0.68 1.08-0.16 1.56-2.64 1.68-5.28 0.32-9.6 0.8v1.24q2.72-0.32 4.92-0.32 3.56 0 6.56 1.56 2 1.12 2 2.52 0 1.8-3.72 1.88-4.96 0.12-9.8 0.44l-0.04 2.08q3.64-0.52 5.8-0.52 4.52 0 7.12 1.68 2.08 1.36 2.08 3.04 0 2-2.04 2-1.56 0-4.8-0.24-2.32-0.08-4.24-0.08-2.04 0-7.84 0.48-7.56 0.64-12.2 0.64-4.68 0-4.68-3.6 0-1.36 1.32-2.56 1.08-0.88 4.16-2.28-1.4-0.2-2.36-0.68-1.56-0.8-1.56-1.84 0-0.68 0.88-1.24 0.76-0.48 1.64-0.48 0.12 0 0.36 0.08 0.36 0.08 0.56 0.08 1.2 0 9.16-1.48v-1.48q-3.28 0.48-5.72 0.48-2.92 0-4.84-1.6-2.04-1.64-2.04-4.96 0-0.6-0.08-2.32-0.24-2.6-0.24-5.04 0-1.12-0.48-2.12-0.28-0.44-0.28-0.84 0-1.56 1.56-1.56zm6.2 25.16q-1.44 0.56-2.6 1.28-2.2 1.4-2.2 2.16t0.92 0.76q2.08 0 5.04-0.72 2.52-0.56 4.68-1l0.04-2.8q-3.56 0.28-5.88 0.32zm18.92-14.08q0.08-0.36 0.16-0.84 0.2-0.76 0.36-1.44-3.4 0.32-6.72 0.92v1.88q2.76-0.52 5.44-0.52h0.76zm-12.96 2.36v-2.28q-3.52 0.72-5.76 0.72-0.6 0-1.08-0.04 0.04 1.08 0.6 1.64 0.72 0.56 2.2 0.56 1.92 0 4.04-0.6zm-6.68-5.68q2.08-0.4 6.52-1.52-0.2-1.04-0.56-1.68-4.08 0.92-6.08 1.28 0.12 0.68 0.12 1.36v0.56zm12.24-4.72q0.4 0.64 0.68 1.68 3.44-0.68 6.12-0.68 0.8 0 1.52 0.12-0.24-2.12-2.44-2.12-2.44 0-5.88 1z"/>
<path d="m54 40.88 0.76 0.16q0.28 0 1.76-1.24 0.32-0.28 0.56-0.44-0.2-2.72-1.84-4.4-0.96-1.16-0.96-1.92 0-1.4 2.36-1.4 2.32 0 4.4 1.48 2 1.4 2 3.68v1.36q1.16 0.28 2.12 0.92 1.64 1.24 1.64 2.56 0 2.04-2.64 2.04l-1.12 0.36v3.52q0.8-0.44 1.56-0.84 0.88-0.52 1.24-0.52 0.8 0 0.8 1.24 0 2.76-3.6 5.56v5.52q11.28 2.96 12.52 2.96 1.08 0 1.08-1.56v-16.2q0-2.52-1.36-4.44l-5.52 0.96q-2.2 0-3.56-0.88-1.12-0.64-1.12-1.44t0.72-1.4q1.04-0.96 1.76-0.96l0.8 0.16q0.6 0 3.48-1.56 4.52-2.52 9.32-2.52 2.36 0 4.24 1.28 1.72 1.24 1.72 2.64 0 2.2-2.84 2.2l-2.4 0.4q1.48 2.24 1.48 8.2v16.48q0 4.92-3.28 4.92-3.96 0-12.4-4.52-2.92-1.48-4.64-2.52v2.32q0 4.56-2.8 4.56-1.8 0-5.44-6-4.08-6.92-4.08-7.92 0-0.32 0.04-0.24-0.04-0.2-0.04-0.4 0-0.68 1.4-1.12 2.56-0.72 5-1.68v-4.4l-0.64 0.2q-2.48 0-4.04-0.96-1.28-0.68-1.28-1.56t0.84-1.56q1.16-1.08 2-1.08zm3.12 15.28q-1.12 0.32-2.2 0.32t-1.96-0.48q2.76 3.76 3.36 3.76 0.8 0 0.8-1.08v-2.52z"/>
</g>
<g>
<path d="m15.52 34q1.52 0 2.76 1.12 0.24-0.12 0.52-0.2h1.12q1.04 0 2.88-0.44 12.4-2.84 16.48-2.84 3.72 0 6.84 2.08 2.36 1.88 2.36 4.48 0 6.44-1.2 9.28-0.32 0.68-0.68 1.08-0.16 1.56-2.64 1.68-5.28 0.32-9.6 0.8v1.24q2.72-0.32 4.92-0.32 3.56 0 6.56 1.56 2 1.12 2 2.52 0 1.8-3.72 1.88-4.96 0.12-9.8 0.44l-0.04 2.08q3.64-0.52 5.8-0.52 4.52 0 7.12 1.68 2.08 1.36 2.08 3.04 0 2-2.04 2-1.56 0-4.8-0.24-2.32-0.08-4.24-0.08-2.04 0-7.84 0.48-7.56 0.64-12.2 0.64-4.68 0-4.68-3.6 0-1.36 1.32-2.56 1.08-0.88 4.16-2.28-1.4-0.2-2.36-0.68-1.56-0.8-1.56-1.84 0-0.68 0.88-1.24 0.76-0.48 1.64-0.48 0.12 0 0.36 0.08 0.36 0.08 0.56 0.08 1.2 0 9.16-1.48v-1.48q-3.28 0.48-5.72 0.48-2.92 0-4.84-1.6-2.04-1.64-2.04-4.96 0-0.6-0.08-2.32-0.24-2.6-0.24-5.04 0-1.12-0.48-2.12-0.28-0.44-0.28-0.84 0-1.56 1.56-1.56zm6.2 25.16q-1.44 0.56-2.6 1.28-2.2 1.4-2.2 2.16t0.92 0.76q2.08 0 5.04-0.72 2.52-0.56 4.68-1l0.04-2.8q-3.56 0.28-5.88 0.32zm18.92-14.08q0.08-0.36 0.16-0.84 0.2-0.76 0.36-1.44-3.4 0.32-6.72 0.92v1.88q2.76-0.52 5.44-0.52h0.76zm-12.96 2.36v-2.28q-3.52 0.72-5.76 0.72-0.6 0-1.08-0.04 0.04 1.08 0.6 1.64 0.72 0.56 2.2 0.56 1.92 0 4.04-0.6zm-6.68-5.68q2.08-0.4 6.52-1.52-0.2-1.04-0.56-1.68-4.08 0.92-6.08 1.28 0.12 0.68 0.12 1.36v0.56zm12.24-4.72q0.4 0.64 0.68 1.68 3.44-0.68 6.12-0.68 0.8 0 1.52 0.12-0.24-2.12-2.44-2.12-2.44 0-5.88 1z"/>
<path d="m54 40.88 0.76 0.16q0.28 0 1.76-1.24 0.32-0.28 0.56-0.44-0.2-2.72-1.84-4.4-0.96-1.16-0.96-1.92 0-1.4 2.36-1.4 2.32 0 4.4 1.48 2 1.4 2 3.68v1.36q1.16 0.28 2.12 0.92 1.64 1.24 1.64 2.56 0 2.04-2.64 2.04l-1.12 0.36v3.52q0.8-0.44 1.56-0.84 0.88-0.52 1.24-0.52 0.8 0 0.8 1.24 0 2.76-3.6 5.56v5.52q11.28 2.96 12.52 2.96 1.08 0 1.08-1.56v-16.2q0-2.52-1.36-4.44l-5.52 0.96q-2.2 0-3.56-0.88-1.12-0.64-1.12-1.44t0.72-1.4q1.04-0.96 1.76-0.96l0.8 0.16q0.6 0 3.48-1.56 4.52-2.52 9.32-2.52 2.36 0 4.24 1.28 1.72 1.24 1.72 2.64 0 2.2-2.84 2.2l-2.4 0.4q1.48 2.24 1.48 8.2v16.48q0 4.92-3.28 4.92-3.96 0-12.4-4.52-2.92-1.48-4.64-2.52v2.32q0 4.56-2.8 4.56-1.8 0-5.44-6-4.08-6.92-4.08-7.92 0-0.32 0.04-0.24-0.04-0.2-0.04-0.4 0-0.68 1.4-1.12 2.56-0.72 5-1.68v-4.4l-0.64 0.2q-2.48 0-4.04-0.96-1.28-0.68-1.28-1.56t0.84-1.56q1.16-1.08 2-1.08zm3.12 15.28q-1.12 0.32-2.2 0.32t-1.96-0.48q2.76 3.76 3.36 3.76 0.8 0 0.8-1.08v-2.52z"/>
</g>
</svg>
