<?xml version="1.0" encoding="UTF-8" standalone="no"?>
<svg xmlns:rdf="http://www.w3.org/1999/02/22-rdf-syntax-ns#" xmlns="http://www.w3.org/2000/svg" height="100" width="100" version="1.1" xmlns:cc="http://creativecommons.org/ns#" xmlns:dc="http://purl.org/dc/elements/1.1/" viewBox="0 0 100 100">
<g transform="translate(0 -952.362)">
<circle cx="50" cy="1002.36" r="50"/>
<circle cx="50" cy="1002.36" r="46" fill="#eee"/>
</g>
<circle cx="50" cy="50" r="35" fill="#f0371b"/>
<g stroke="#eee" stroke-width="6" fill="none">
<path d="m15.52 34q1.52 0 2.76 1.12 0.24-0.12 0.52-0.2h1.12q1.04 0 2.88-0.44 12.4-2.84 16.48-2.84 3.72 0 6.84 2.08 2.36 1.88 2.36 4.48 0 6.44-1.2 9.28-0.32 0.68-0.68 1.08-0.16 1.56-2.64 1.68-5.28 0.32-9.6 0.8v1.24q2.72-0.32 4.92-0.32 3.56 0 6.56 1.56 2 1.12 2 2.52 0 1.8-3.72 1.88-4.96 0.12-9.8 0.44l-0.04 2.08q3.64-0.52 5.8-0.52 4.52 0 7.12 1.68 2.08 1.36 2.08 3.04 0 2-2.04 2-1.56 0-4.8-0.24-2.32-0.08-4.24-0.08-2.04 0-7.84 0.48-7.56 0.64-12.2 0.64-4.68 0-4.68-3.6 0-1.36 1.32-2.56 1.08-0.88 4.16-2.28-1.4-0.2-2.36-0.68-1.56-0.8-1.56-1.84 0-0.68 0.88-1.24 0.76-0.48 1.64-0.48 0.12 0 0.36 0.08 0.36 0.08 0.56 0.08 1.2 0 9.16-1.48v-1.48q-3.28 0.48-5.72 0.48-2.92 0-4.84-1.6-2.04-1.64-2.04-4.96 0-0.6-0.08-2.32-0.24-2.6-0.24-5.04 0-1.12-0.48-2.12-0.28-0.44-0.28-0.84 0-1.56 1.56-1.56zm6.2 25.16q-1.44 0.56-2.6 1.28-2.2 1.4-2.2 2.16t0.92 0.76q2.08 0 5.04-0.72 2.52-0.56 4.68-1l0.04-2.8q-3.56 0.28-5.88 0.32zm18.92-14.08q0.08-0.36 0.16-0.84 0.2-0.76 0.36-1.44-3.4 0.32-6.72 0.92v1.88q2.76-0.52 5.44-0.52h0.76zm-12.96 2.36v-2.28q-3.52 0.72-5.76 0.72-0.6 0-1.08-0.04 0.04 1.08 0.6 1.64 0.72 0.56 2.2 0.56 1.92 0 4.04-0.6zm-6.68-5.68q2.08-0.4 6.52-1.52-0.2-1.04-0.56-1.68-4.08 0.92-6.08 1.28 0.12 0.68 0.12 1.36v0.56zm12.24-4.72q0.4 0.64 0.68 1.68 3.44-0.68 6.12-0.68 0.8 0 1.52 0.12-0.24-2.12-2.44-2.12-2.44 0-5.88 1z"/>
<path d="m52.28 32.6q1.24 0 2.4 0.8l0.56 0.12q0.32 0 1.36-0.36 2.56-0.88 3.64-0.88 2.16 0 3.64 1.64 1.36 1.52 1.36 4.28v1.88q2.08 0.08 4.04 1.44v-1.88q0-2.96-1.08-5.32-0.48-0.84-0.48-1.28 0-1.4 1.56-1.4 0.96 0 2.16 0.76 1.72 1.16 2.2 3 0.52 1.48 0.52 4.24 0 6.64-0.64 14.08-0.6 7.72-1.52 11-0.64 2.88-2.24 2.88-1.88 0-3.24-0.68-0.96-0.48-0.96-1.36 0-0.92 0.44-1.84 1.28-2.52 2.04-6.4-0.36 0.12-0.76 0.12-3.24 0-3.28-2.4-0.12 0.04-0.16 0.04-1.36 0.52-2.28 0.8l-0.04 5.24q1.64-0.88 3.24-1.96 0.52-0.48 0.8-0.48 0.44 0 0.44 0.64 0 1.96-3.12 5.24-2.8 3.04-5.76 3.04-2.6 0-4.2-1.76-1.6-1.92-1.6-4.8 0-2 0.32-4 0.32-1.64 0.32-3.04 0-0.8-0.36-1.4-0.44-0.56-0.44-1.12 0-1.08 1.28-1.08 1.56 0 3.12 1.28 1.08 0.96 1.08 2.32 0 0.92-1.08 2.84-0.8 1.96-0.8 4.2 0 2 1.88 2l0.16-11.56q0-1.12-0.44-2.2-0.48-0.84-0.52-1.24h-0.92q-2.96-0.28-3.28-2.8 0-0.76 0.08-3.08 0.08-2.44 0.08-4.88 0-1.2-0.52-2.08-0.28-0.64-0.28-1.04 0-1.56 1.28-1.56zm12.12 19.12q0.76-2.56 2.64-4.6 1-0.8 1-1.72 0-0.56-1.28-1.52-1-0.72-1.52-1.36v0.24q0 1.2-0.24 2 0.56 0.76 0.56 1.56 0 1.44-1.4 1.44-1.64 0-3.4 0.08 0.88 0.84 0.88 2.08l-0.04 1.88q0.68-0.48 0.96-0.48 1.04 0 1.84 0.4zm-4.64-7.6q0-1.08 0.2-2.64 0.12-1.88 0.12-4.2 0-1.08-0.92-1.08-0.32 0-2.68 0.92l-0.16 6.56q0 0.8 0.96 0.8 0.92 0 2.24-0.32 0.16-0.04 0.24-0.04zm9.24 5.52q-2.52 1.84-2.52 3.56 0 0.64 0.64 0.64 0.72 0 1.6-0.88 0.08-0.64 0.16-1.28 0.08-1 0.12-2.04zm7-18.16q1.72 0 2.84 1.24 1.08 1.12 1.08 2.68v2.32q0.76-0.92 1.4-0.92 1.8 0 3.84 1.52 1.64 1.4 1.64 2.4 0 2.24-3.44 5.44-1.2 1.28-2.16 1.96 1.44 0.64 3.32 2.08 2.76 2.12 2.76 4.56 0 3.24-2.4 3.4 0.44 0.68 0.92 1.48 1.48 2.44 1.48 3.96 0 1.4-1.2 2.6-1.32 1.4-3.92 1.4-4.2 0-5.8-1.92-1.44-1.64-1.44-4.96v-23.92q0-1.68-0.72-2.8-0.2-0.6-0.2-0.96 0-1.56 2-1.56zm7.16 25.68q-0.2-0.32-0.32-0.56-1.6-2.96-2.92-4.96v7.84q0 1.48 0.4 2.32 0.36 0.8 1.84 0.8 0.8 0 1.36-0.28 0.48-0.24 0.48-0.76 0-1.84-0.84-4.4zm-3.24-11.68q1.72-2.4 1.72-3.68 0-2.04-0.92-2.04-0.44 0-0.8 0.44v5.28z"/>
</g>
<g>
<path d="m15.52 34q1.52 0 2.76 1.12 0.24-0.12 0.52-0.2h1.12q1.04 0 2.88-0.44 12.4-2.84 16.48-2.84 3.72 0 6.84 2.08 2.36 1.88 2.36 4.48 0 6.44-1.2 9.28-0.32 0.68-0.68 1.08-0.16 1.56-2.64 1.68-5.28 0.32-9.6 0.8v1.24q2.72-0.32 4.92-0.32 3.56 0 6.56 1.56 2 1.12 2 2.52 0 1.8-3.72 1.88-4.96 0.12-9.8 0.44l-0.04 2.08q3.64-0.52 5.8-0.52 4.52 0 7.12 1.68 2.08 1.36 2.08 3.04 0 2-2.04 2-1.56 0-4.8-0.24-2.32-0.08-4.24-0.08-2.04 0-7.84 0.48-7.56 0.64-12.2 0.64-4.68 0-4.68-3.6 0-1.36 1.32-2.56 1.08-0.88 4.16-2.28-1.4-0.2-2.36-0.68-1.56-0.8-1.56-1.84 0-0.68 0.88-1.24 0.76-0.48 1.64-0.48 0.12 0 0.36 0.08 0.36 0.08 0.56 0.08 1.2 0 9.16-1.48v-1.48q-3.28 0.48-5.72 0.48-2.92 0-4.84-1.6-2.04-1.64-2.04-4.96 0-0.6-0.08-2.32-0.24-2.6-0.24-5.04 0-1.12-0.48-2.12-0.28-0.44-0.28-0.84 0-1.56 1.56-1.56zm6.2 25.16q-1.44 0.56-2.6 1.28-2.2 1.4-2.2 2.16t0.92 0.76q2.08 0 5.04-0.72 2.52-0.56 4.68-1l0.04-2.8q-3.56 0.28-5.88 0.32zm18.92-14.08q0.08-0.36 0.16-0.84 0.2-0.76 0.36-1.44-3.4 0.32-6.72 0.92v1.88q2.76-0.52 5.44-0.52h0.76zm-12.96 2.36v-2.28q-3.52 0.72-5.76 0.72-0.6 0-1.08-0.04 0.04 1.08 0.6 1.64 0.72 0.56 2.2 0.56 1.92 0 4.04-0.6zm-6.68-5.68q2.08-0.4 6.52-1.52-0.2-1.04-0.56-1.68-4.08 0.92-6.08 1.28 0.12 0.68 0.12 1.36v0.56zm12.24-4.72q0.4 0.64 0.68 1.68 3.44-0.68 6.12-0.68 0.8 0 1.52 0.12-0.24-2.12-2.44-2.12-2.44 0-5.88 1z"/>
<path d="m52.28 32.6q1.24 0 2.4 0.8l0.56 0.12q0.32 0 1.36-0.36 2.56-0.88 3.64-0.88 2.16 0 3.64 1.64 1.36 1.52 1.36 4.28v1.88q2.08 0.08 4.04 1.44v-1.88q0-2.96-1.08-5.32-0.48-0.84-0.48-1.28 0-1.4 1.56-1.4 0.96 0 2.16 0.76 1.72 1.16 2.2 3 0.52 1.48 0.52 4.24 0 6.64-0.64 14.08-0.6 7.72-1.52 11-0.64 2.88-2.24 2.88-1.88 0-3.24-0.68-0.96-0.48-0.96-1.36 0-0.92 0.44-1.84 1.28-2.52 2.04-6.4-0.36 0.12-0.76 0.12-3.24 0-3.28-2.4-0.12 0.04-0.16 0.04-1.36 0.52-2.28 0.8l-0.04 5.24q1.64-0.88 3.24-1.96 0.52-0.48 0.8-0.48 0.44 0 0.44 0.64 0 1.96-3.12 5.24-2.8 3.04-5.76 3.04-2.6 0-4.2-1.76-1.6-1.92-1.6-4.8 0-2 0.32-4 0.32-1.64 0.32-3.04 0-0.8-0.36-1.4-0.44-0.56-0.44-1.12 0-1.08 1.28-1.08 1.56 0 3.12 1.28 1.08 0.96 1.08 2.32 0 0.92-1.08 2.84-0.8 1.96-0.8 4.2 0 2 1.88 2l0.16-11.56q0-1.12-0.44-2.2-0.48-0.84-0.52-1.24h-0.92q-2.96-0.28-3.28-2.8 0-0.76 0.08-3.08 0.08-2.44 0.08-4.88 0-1.2-0.52-2.08-0.28-0.64-0.28-1.04 0-1.56 1.28-1.56zm12.12 19.12q0.76-2.56 2.64-4.6 1-0.8 1-1.72 0-0.56-1.28-1.52-1-0.72-1.52-1.36v0.24q0 1.2-0.24 2 0.56 0.76 0.56 1.56 0 1.44-1.4 1.44-1.64 0-3.4 0.08 0.88 0.84 0.88 2.08l-0.04 1.88q0.68-0.48 0.96-0.48 1.04 0 1.84 0.4zm-4.64-7.6q0-1.08 0.2-2.64 0.12-1.88 0.12-4.2 0-1.08-0.92-1.08-0.32 0-2.68 0.92l-0.16 6.56q0 0.8 0.96 0.8 0.92 0 2.24-0.32 0.16-0.04 0.24-0.04zm9.24 5.52q-2.52 1.84-2.52 3.56 0 0.64 0.64 0.64 0.72 0 1.6-0.88 0.08-0.64 0.16-1.28 0.08-1 0.12-2.04zm7-18.16q1.72 0 2.84 1.24 1.08 1.12 1.08 2.68v2.32q0.76-0.92 1.4-0.92 1.8 0 3.84 1.52 1.64 1.4 1.64 2.4 0 2.24-3.44 5.44-1.2 1.28-2.16 1.96 1.44 0.64 3.32 2.08 2.76 2.12 2.76 4.56 0 3.24-2.4 3.4 0.44 0.68 0.92 1.48 1.48 2.44 1.48 3.96 0 1.4-1.2 2.6-1.32 1.4-3.92 1.4-4.2 0-5.8-1.92-1.44-1.64-1.44-4.96v-23.92q0-1.68-0.72-2.8-0.2-0.6-0.2-0.96 0-1.56 2-1.56zm7.16 25.68q-0.2-0.32-0.32-0.56-1.6-2.96-2.92-4.96v7.84q0 1.48 0.4 2.32 0.36 0.8 1.84 0.8 0.8 0 1.36-0.28 0.48-0.24 0.48-0.76 0-1.84-0.84-4.4zm-3.24-11.68q1.72-2.4 1.72-3.68 0-2.04-0.92-2.04-0.44 0-0.8 0.44v5.28z"/>
</g>
</svg>
