<?xml version="1.0" encoding="UTF-8" standalone="no"?>
<svg xmlns:rdf="http://www.w3.org/1999/02/22-rdf-syntax-ns#" xmlns="http://www.w3.org/2000/svg" height="100" width="100" version="1.1" xmlns:cc="http://creativecommons.org/ns#" xmlns:dc="http://purl.org/dc/elements/1.1/" viewBox="0 0 100 100">
<g transform="translate(0 -952.362)">
<circle cx="50" cy="1002.36" r="50"/>
<circle cx="50" cy="1002.36" r="46" fill="#eee"/>
</g>
<circle cx="50" cy="50" r="35" fill="#f0371b"/>
<g transform="translate(-6.7378 -.0400017)" stroke="#eee" stroke-width="6" fill="none">
<path d="m48.9653 51.54q0 5.2-4.08 8.8-3.92 3.44-9.16 3.44-6 0-10-3.68-4.12-3.84-4.12-9.8 0-6.16 3.92-10.08 3.96-3.92 10.08-3.92 3.92 0 7.88 1.88 0.16 0.08 0.2 0.08 0.68 0 1.12 0.32 2.76 2 2.76 4.24 0 1.16-0.6 1.68 2 3.6 2 7.04zm-6.48-1.2q0-2.72-1.92-6.16-0.44-0.76-0.48-1.48-2.56-1-4.2-1-3.6 0-5.56 2.56-1.8 2.36-1.8 6.16 0 3.4 1.88 5.68 2.04 2.4 5.32 2.4 3.08 0 5-2.56 1.76-2.32 1.76-5.6z"/>
<path d="m71.7616 61.02q0 1.12-0.88 1.88-0.84 0.76-1.96 0.76-4.36 0-4.36-7.56 0-1.12 0.24-3.96 0.28-2.88 0.28-3.32 0-2.12-1.76-2.12-1.4 0-3.56 0.88-2.68 1.08-3.52 1.24 0 1.2 0.08 4 0.08 2.64 0.08 4.04 0 6.88-3.04 6.88-3.48 0-3.48-6.6 0-2.24 0.2-6.8t0.2-6.48q0-3.16-0.64-4.72-0.28-0.68-0.28-0.76 0-2.08 1.96-2.08 1.44 0 2.76 0.96t1.8 2.32q0.16 0.52 0.28 3.6 4.12-1.64 7.16-1.64 3.32 0 5.44 1.96 2.12 2 2.2 5.28 0.04 1.12-0.12 3.08-0.16 2.12-0.16 3.08 0 0.88 0.88 4.84 0.2 0.92 0.2 1.24z"/>
<path style="" d="m91.8703 51.3989q0 1.035-1.665 1.8675-1.4625 0.72-2.6325 0.72-1.44 0-3.735-1.26-2.3175-1.26-3.0375-1.26-1.17 0-3.15 1.035-1.98 1.0575-2.4975 1.0575-1.6875 0-1.6875-1.2375 0-0.675 0.495-1.305 0.495-0.6075 1.17-0.72 0.3825-0.0675 0.9-0.36 0.4275-0.27 0.855-0.5175 1.755-0.945 3.3975-0.945 1.6875 0 4.005 1.1925 2.34 1.1925 3.4425 1.1925 0.54 0 1.485-0.36t1.395-0.36q1.26 0 1.26 1.26z"/>
</g>
<g transform="translate(-6.7378 -.0400017)">
<path d="m48.9653 51.54q0 5.2-4.08 8.8-3.92 3.44-9.16 3.44-6 0-10-3.68-4.12-3.84-4.12-9.8 0-6.16 3.92-10.08 3.96-3.92 10.08-3.92 3.92 0 7.88 1.88 0.16 0.08 0.2 0.08 0.68 0 1.12 0.32 2.76 2 2.76 4.24 0 1.16-0.6 1.68 2 3.6 2 7.04zm-6.48-1.2q0-2.72-1.92-6.16-0.44-0.76-0.48-1.48-2.56-1-4.2-1-3.6 0-5.56 2.56-1.8 2.36-1.8 6.16 0 3.4 1.88 5.68 2.04 2.4 5.32 2.4 3.08 0 5-2.56 1.76-2.32 1.76-5.6z"/>
<path d="m71.7616 61.02q0 1.12-0.88 1.88-0.84 0.76-1.96 0.76-4.36 0-4.36-7.56 0-1.12 0.24-3.96 0.28-2.88 0.28-3.32 0-2.12-1.76-2.12-1.4 0-3.56 0.88-2.68 1.08-3.52 1.24 0 1.2 0.08 4 0.08 2.64 0.08 4.04 0 6.88-3.04 6.88-3.48 0-3.48-6.6 0-2.24 0.2-6.8t0.2-6.48q0-3.16-0.64-4.72-0.28-0.68-0.28-0.76 0-2.08 1.96-2.08 1.44 0 2.76 0.96t1.8 2.32q0.16 0.52 0.28 3.6 4.12-1.64 7.16-1.64 3.32 0 5.44 1.96 2.12 2 2.2 5.28 0.04 1.12-0.12 3.08-0.16 2.12-0.16 3.08 0 0.88 0.88 4.84 0.2 0.92 0.2 1.24z"/>
<path style="" d="m91.8703 51.3989q0 1.035-1.665 1.8675-1.4625 0.72-2.6325 0.72-1.44 0-3.735-1.26-2.3175-1.26-3.0375-1.26-1.17 0-3.15 1.035-1.98 1.0575-2.4975 1.0575-1.6875 0-1.6875-1.2375 0-0.675 0.495-1.305 0.495-0.6075 1.17-0.72 0.3825-0.0675 0.9-0.36 0.4275-0.27 0.855-0.5175 1.755-0.945 3.3975-0.945 1.6875 0 4.005 1.1925 2.34 1.1925 3.4425 1.1925 0.54 0 1.485-0.36t1.395-0.36q1.26 0 1.26 1.26z"/>
</g>
</svg>
