<?xml version="1.0" encoding="UTF-8" standalone="no"?>
<svg xmlns:rdf="http://www.w3.org/1999/02/22-rdf-syntax-ns#" xmlns="http://www.w3.org/2000/svg" height="100" width="100" version="1.1" xmlns:cc="http://creativecommons.org/ns#" xmlns:dc="http://purl.org/dc/elements/1.1/" viewBox="0 0 100 100">
<g transform="translate(0 -952.362)">
<circle cx="50" cy="1002.36" r="50"/>
<circle cx="50" cy="1002.36" r="46" fill="#eee"/>
</g>
<circle cx="50" cy="50" r="35" fill="#68c0c1"/>
<g stroke="#eee" stroke-width="6" fill="none">
<path d="m18.48 32.6q1.36 0 2.36 1.32 1.2 1.56 1.2 1.56 0.76 1 1.44 1 0.88 0 3.16-1.44 6.64-3.84 11.52-3.84 2.8 0 5.24 1.36 2.6 1.48 2.6 2.68 0 0.88-1.8 1.8 1.32 0.36 2.28 0.92 2.48 1.4 2.48 2.76 0 1.88-2.04 1.88-1.64 0-3.48-0.28-2.16-0.2-5.28-0.2-6.44 0-13.88 1.6-4.4 0.92-5.96 0.92-2.6 0-3.92-0.72-1.08-0.76-1.08-1.16 0-0.92 1.08-1.56 1.32-0.64 2.2-0.64h0.96q0.6 0 2.08-0.4-0.56-0.4-1.04-0.84-2.76-2.6-2.76-3.92 0-2.8 2.64-2.8zm10.4 5.16q4-0.84 7.36-1.12 2.08-1.16 2.08-2.16 0-0.8-1.4-0.8-3.4 0-8.04 4.08zm-13.52 7.8q1.2 0 2.96 1.04 0.8-0.12 1.88-0.56 3.92-1.56 5.64-1.56 2.52 0 3.96 2.12 1.2 1.68 1.2 4.88v9.88q0.16 0 0.24 0.04 4.8 1.2 9.12 1.2 0.72 0 0.92-0.64 0.16-1.04 0.16-1.72v-13.28q0-1.4-1.08-1.4-1.2 0-2.36 1.44 0.64 1.6 0.64 4.8v6.4q0 3.28-2.8 3.28-2.52 0-2.52-2.96v-7.8q0-2.52-1.04-3.68-0.52-0.68-0.52-1 0-1.56 1.72-1.56 1.64 0 3.08 0.96 0.36-0.44 0.72-0.8 2.04-1.72 5.44-1.72 2.4 0 3.44 1.2 1.08 1.44 1.08 4.08l0.48 15.8q0 3.6-3.44 3.6-3.24 0-9.24-2.96-2.88-1.48-4.04-2.32-0.16 5.28-3.16 5.28-2.04 0-5-2.28-2.88-1.88-3.2-2.6-0.16 2.64-0.36 3.32-0.68 1.56-2.04 1.56-1.08 0-1.84-1.16-0.96-1.52-0.96-3.84 0-1.88 0.48-5.32 0.28-2.32 0.28-5.8 0-2.28-0.72-3.52-0.52-0.76-0.52-1.16 0-1.24 1.4-1.24zm4.32 16.64q0.2-0.08 0.36-0.08 3.08 1.08 3.92 1.08 1.52 0 1.56-3.4-1.04 0.24-2.08 0.6-1.68 0.64-2.6 0.64-0.64 0-1.12-0.04 0 0.64-0.04 1.2zm0.12-4.52q0.84-0.28 2.16-0.8 1.72-0.68 2.92-0.68 0.36 0 0.64 0.04v-2.44q-1.28 0.32-2.52 0.92-1.6 0.84-2.48 0.84-0.36 0-0.68-0.04 0 1.16-0.04 2.16zm0.08-5.72q0.68-0.36 1.6-0.84 1.64-0.88 2.8-0.88 0.68 0 1.24 0.08v-0.68q0-1.44-1.08-1.44-0.8 0-4 1.44-0.32 0.12-0.56 0.2v2.12z"/>
<path d="m53.2 40.72h0.48q0.32 0 1.96-0.92 0.08-0.04 0.08-0.04v-0.44q0-2.84-1.76-4.6-0.92-0.96-0.92-1.68 0-1.24 2.04-1.24 2.16 0 4.08 1.32 1.84 1.28 1.84 3.36v1.88q1.72 0.08 3.08 0.96 0.76 0.56 1.04 1.08 0.04-0.04 0.04-0.04 0.84-1.44 0.84-3.4 0-1-0.2-1.92-0.24-0.56-0.24-1.04 0-1.4 1.4-1.4 0.96 0 2.04 1.76 0.28 0.08 0.52 0.12 0.64 0.16 1.32 0.16 1 0 4.48-1.4 2.6-1.12 4.44-1.12 3.16 0 5.88 2.16 2.08 1.8 2.08 4.08 0 1.52-1.8 2.36-2.08 0.92-5.36 0.92-2.2 0-2.2-0.6 0-0.36 0.64-0.76 2.96-1.6 2.96-3.32 0-0.92-2.2-0.92-1.56 0-3.68 0.88-3.16 1.28-4.76 1.28-0.6 0-1.12-0.04 0.04 0.44 0.04 0.84 0 2.6-1.12 4.2-0.92 1.28-2.16 1.28-1.04 0-1.68-0.92-0.32-0.52-0.52-0.92-0.52 0.4-1.56 0.4l-2.2 0.4v4.12q0.8-0.6 1.56-1.2 0.8-0.64 1.12-0.64 0.6 0 0.6 0.92 0 3.16-3.28 6.32v10.56q0 4.52-2.48 4.52-1.44 0-4.36-5.76-2.64-5.32-3.16-6.96-0.44-0.6-0.44-1.16 0-0.88 1.2-1.4 2-0.8 3.96-1.84v-6.56l-0.8 0.12q-1.84 0-2.96-0.72-0.96-0.52-0.96-1.16t0.64-1.12q0.88-0.76 1.56-0.76zm2.52 15.76q-0.96 0.32-1.88 0.32-0.84 0-1.52-0.36 2.16 3.8 2.6 3.8 0.8 0 0.8-1.08v-2.68zm11.24-11.24 0.6 0.16q0.68 0 3.64-1 0.44-0.8 0.44-1.36 0-0.68-0.48-1.32-0.44-0.56-0.44-1 0-1.72 2-1.72 1.76 0 3.68 1.48 1.16 1 1.48 2.28 2.28-0.32 4.56-0.32 1.72 0 3.12 0.92 1.24 1 1.24 2.04 0 1.56-2.04 1.56l-7.92 1q0.96 0.44 1.84 1.16 0.44 0.4 0.72 1.16 1.16-0.36 1.92-0.36 2.4 0 4 0.92 1.64 1.24 1.64 2.36 0 2.16-2.52 2.36-2.4 0.32-4.36 0.76v1.12q3.24 0.04 5.92 1.4 1.88 1.04 1.88 2.36 0 1.64-3.44 1.72-2.16 0.04-4.24 0.2l0.04 1.04q0 3.6-3.12 3.6-2.68 0-2.68-3.12v-1.04q-3.92 0.4-6.08 0.4-2.32 0-3.6-0.68-1.24-0.68-1.24-1.52 0-0.52 0.68-1.04 0.64-0.36 1.36-0.36 0.08 0 0.32 0.08 0.28 0.08 0.44 0.08 0.84 0 6.92-1.88 0.6-0.2 1.08-0.32v-0.76q-1.32 0.16-2.68 0.16-6.08 0-6.08-4.84 0-1.72 1.8-4.04-0.92-0.2-1.56-0.6-0.88-0.52-0.88-1.16t0.6-1.08q0.84-0.8 1.44-0.8zm7.2 7.44q-0.24-1.56-1-2.44-0.6-0.72-0.6-1.08 0-0.2 0.04-0.36-2.84 2.08-2.84 3 0 1.56 2.04 1.56 0.84 0 2.36-0.68z"/>
</g>
<g>
<path d="m18.48 32.6q1.36 0 2.36 1.32 1.2 1.56 1.2 1.56 0.76 1 1.44 1 0.88 0 3.16-1.44 6.64-3.84 11.52-3.84 2.8 0 5.24 1.36 2.6 1.48 2.6 2.68 0 0.88-1.8 1.8 1.32 0.36 2.28 0.92 2.48 1.4 2.48 2.76 0 1.88-2.04 1.88-1.64 0-3.48-0.28-2.16-0.2-5.28-0.2-6.44 0-13.88 1.6-4.4 0.92-5.96 0.92-2.6 0-3.92-0.72-1.08-0.76-1.08-1.16 0-0.92 1.08-1.56 1.32-0.64 2.2-0.64h0.96q0.6 0 2.08-0.4-0.56-0.4-1.04-0.84-2.76-2.6-2.76-3.92 0-2.8 2.64-2.8zm10.4 5.16q4-0.84 7.36-1.12 2.08-1.16 2.08-2.16 0-0.8-1.4-0.8-3.4 0-8.04 4.08zm-13.52 7.8q1.2 0 2.96 1.04 0.8-0.12 1.88-0.56 3.92-1.56 5.64-1.56 2.52 0 3.96 2.12 1.2 1.68 1.2 4.88v9.88q0.16 0 0.24 0.04 4.8 1.2 9.12 1.2 0.72 0 0.92-0.64 0.16-1.04 0.16-1.72v-13.28q0-1.4-1.08-1.4-1.2 0-2.36 1.44 0.64 1.6 0.64 4.8v6.4q0 3.28-2.8 3.28-2.52 0-2.52-2.96v-7.8q0-2.52-1.04-3.68-0.52-0.68-0.52-1 0-1.56 1.72-1.56 1.64 0 3.08 0.96 0.36-0.44 0.72-0.8 2.04-1.72 5.44-1.72 2.4 0 3.44 1.2 1.08 1.44 1.08 4.08l0.48 15.8q0 3.6-3.44 3.6-3.24 0-9.24-2.96-2.88-1.48-4.04-2.32-0.16 5.28-3.16 5.28-2.04 0-5-2.28-2.88-1.88-3.2-2.6-0.16 2.64-0.36 3.32-0.68 1.56-2.04 1.56-1.08 0-1.84-1.16-0.96-1.52-0.96-3.84 0-1.88 0.48-5.32 0.28-2.32 0.28-5.8 0-2.28-0.72-3.52-0.52-0.76-0.52-1.16 0-1.24 1.4-1.24zm4.32 16.64q0.2-0.08 0.36-0.08 3.08 1.08 3.92 1.08 1.52 0 1.56-3.4-1.04 0.24-2.08 0.6-1.68 0.64-2.6 0.64-0.64 0-1.12-0.04 0 0.64-0.04 1.2zm0.12-4.52q0.84-0.28 2.16-0.8 1.72-0.68 2.92-0.68 0.36 0 0.64 0.04v-2.44q-1.28 0.32-2.52 0.92-1.6 0.84-2.48 0.84-0.36 0-0.68-0.04 0 1.16-0.04 2.16zm0.08-5.72q0.68-0.36 1.6-0.84 1.64-0.88 2.8-0.88 0.68 0 1.24 0.08v-0.68q0-1.44-1.08-1.44-0.8 0-4 1.44-0.32 0.12-0.56 0.2v2.12z"/>
<path d="m53.2 40.72h0.48q0.32 0 1.96-0.92 0.08-0.04 0.08-0.04v-0.44q0-2.84-1.76-4.6-0.92-0.96-0.92-1.68 0-1.24 2.04-1.24 2.16 0 4.08 1.32 1.84 1.28 1.84 3.36v1.88q1.72 0.08 3.08 0.96 0.76 0.56 1.04 1.08 0.04-0.04 0.04-0.04 0.84-1.44 0.84-3.4 0-1-0.2-1.92-0.24-0.56-0.24-1.04 0-1.4 1.4-1.4 0.96 0 2.04 1.76 0.28 0.08 0.52 0.12 0.64 0.16 1.32 0.16 1 0 4.48-1.4 2.6-1.12 4.44-1.12 3.16 0 5.88 2.16 2.08 1.8 2.08 4.08 0 1.52-1.8 2.36-2.08 0.92-5.36 0.92-2.2 0-2.2-0.6 0-0.36 0.64-0.76 2.96-1.6 2.96-3.32 0-0.92-2.2-0.92-1.56 0-3.68 0.88-3.16 1.28-4.76 1.28-0.6 0-1.12-0.04 0.04 0.44 0.04 0.84 0 2.6-1.12 4.2-0.92 1.28-2.16 1.28-1.04 0-1.68-0.92-0.32-0.52-0.52-0.92-0.52 0.4-1.56 0.4l-2.2 0.4v4.12q0.8-0.6 1.56-1.2 0.8-0.64 1.12-0.64 0.6 0 0.6 0.92 0 3.16-3.28 6.32v10.56q0 4.52-2.48 4.52-1.44 0-4.36-5.76-2.64-5.32-3.16-6.96-0.44-0.6-0.44-1.16 0-0.88 1.2-1.4 2-0.8 3.96-1.84v-6.56l-0.8 0.12q-1.84 0-2.96-0.72-0.96-0.52-0.96-1.16t0.64-1.12q0.88-0.76 1.56-0.76zm2.52 15.76q-0.96 0.32-1.88 0.32-0.84 0-1.52-0.36 2.16 3.8 2.6 3.8 0.8 0 0.8-1.08v-2.68zm11.24-11.24 0.6 0.16q0.68 0 3.64-1 0.44-0.8 0.44-1.36 0-0.68-0.48-1.32-0.44-0.56-0.44-1 0-1.72 2-1.72 1.76 0 3.68 1.48 1.16 1 1.48 2.28 2.28-0.32 4.56-0.32 1.72 0 3.12 0.92 1.24 1 1.24 2.04 0 1.56-2.04 1.56l-7.92 1q0.96 0.44 1.84 1.16 0.44 0.4 0.72 1.16 1.16-0.36 1.92-0.36 2.4 0 4 0.92 1.64 1.24 1.64 2.36 0 2.16-2.52 2.36-2.4 0.32-4.36 0.76v1.12q3.24 0.04 5.92 1.4 1.88 1.04 1.88 2.36 0 1.64-3.44 1.72-2.16 0.04-4.24 0.2l0.04 1.04q0 3.6-3.12 3.6-2.68 0-2.68-3.12v-1.04q-3.92 0.4-6.08 0.4-2.32 0-3.6-0.68-1.24-0.68-1.24-1.52 0-0.52 0.68-1.04 0.64-0.36 1.36-0.36 0.08 0 0.32 0.08 0.28 0.08 0.44 0.08 0.84 0 6.92-1.88 0.6-0.2 1.08-0.32v-0.76q-1.32 0.16-2.68 0.16-6.08 0-6.08-4.84 0-1.72 1.8-4.04-0.92-0.2-1.56-0.6-0.88-0.52-0.88-1.16t0.6-1.08q0.84-0.8 1.44-0.8zm7.2 7.44q-0.24-1.56-1-2.44-0.6-0.72-0.6-1.08 0-0.2 0.04-0.36-2.84 2.08-2.84 3 0 1.56 2.04 1.56 0.84 0 2.36-0.68z"/>
</g>
</svg>
