<?xml version="1.0" encoding="UTF-8" standalone="no"?>
<svg xmlns:rdf="http://www.w3.org/1999/02/22-rdf-syntax-ns#" xmlns="http://www.w3.org/2000/svg" height="100" width="100" version="1.1" xmlns:cc="http://creativecommons.org/ns#" xmlns:dc="http://purl.org/dc/elements/1.1/" viewBox="0 0 100 100">
<g transform="translate(0 -952.362)">
<circle cx="50" cy="1002.36" r="50"/>
<circle cx="50" cy="1002.36" r="46" fill="#eee"/>
</g>
<circle cx="50" cy="50" r="35" fill="#68c0c1"/>
<g stroke="#eee" stroke-width="6" fill="none">
<path d="m25.84 31.96q2.68 0 5.04 2.04 1.68 1.44 1.68 7.64l-0.04 3.96q1.4-0.24 3.88-0.88 1.8-0.44 2.2-1.32 0.6-1.28 2.4-1.28 2.6 0 4.2 1.36 1.72 1.16 1.72 2.4 0 2.08-5.04 3.36-5.12 1.24-9.4 1.52l-0.08 8.84q2.84-0.28 5.16-0.28 5.28 0 8.52 1.72 3.04 1.68 3.04 3.28 0 2.32-2.52 2.32-2.04 0-4.28-0.36-2.68-0.24-6.48-0.24-5.24 0-11.28 0.68-3.56 0.4-4.84 0.4-3.44 0-5.2-0.92-1.36-1.04-1.36-1.56 0-1.24 1.4-2.12 1.64-0.88 2.84-0.88 0.16 0 0.52 0.08 0.48 0.08 0.88 0.08 0.64 0 2.56-0.4 2.28-0.48 4.32-0.84 0-0.2 0-0.32l-0.16-20.16q0-3.24-1.24-4.76-0.64-0.88-0.64-1.32 0-2.04 2.2-2.04z"/>
<path d="m56.16 31.48q1.24 0 2.2 1.72 0.72 1.44 2.56 3.84 0.4 0.52 0.4 1 0 1.4-0.48 2.2 1.8-0.36 4.04-0.84-0.32-0.44-0.56-0.88-0.8-1.6-0.8-3.88 0-3.16 2.96-3.16 0.72 0 1.68 1.72 1.32 2.36 2.56 2.36 0.72 0 2.6-2.04 2.68-2.32 3.8-2.32 2.24 0 4.24 0.76 1.84 0.92 1.84 1.88 0 2.24-2.84 3.76 2.2 0.32 4.04 1.24 1.92 1.04 1.92 2.36 0 1.8-3.6 1.84-1 0.04-1.96 0.12 0.36 0.2 0.76 0.36 5.6 2.72 5.6 5.8 0 2.4-1.88 2.48 0.32 0.44 0.32 0.96 0 1.64-3.44 1.72-4.52 0.16-8.92 0.68v1.88q2.76-0.4 4.52-0.4 4.52 0 7.16 1.52 2.08 1.24 2.08 2.72 0 1.88-1.88 1.88-1.56 0-4.84-0.24-2.32-0.08-4.24-0.08-1 0-2.8 0.16v1.24q0 3.92-3.28 3.92-2.96 0-2.96-3.44v-1.08q-6.96 0.76-11.24 0.76-4.24 0-4.24-3.28 0-1.28 2.2-2.36 1.4-0.64 4.76-1.6-2.36-0.08-3.72-0.72-1.52-0.76-1.52-1.72 0-0.56 0.52-1-2.56-0.24-2.56-3.56 0-0.64 1.08-0.96 0 0 0.84-0.24 1.48-0.36 4.56-2.68-2.8-0.08-4.44-0.92-1.72-0.92-1.72-2.04 0-0.76 1-1.4 0.84-0.48 1.8-0.48 0.16 0 0.48 0.08 0.36 0.08 0.64 0.08 0.4 0 1.6-0.2-0.64-0.4-1.2-1-1.36-1.6-1.36-3.04 0-5.48 1.72-5.48zm10.8 26.64v-2.08q-3.4 0.52-5.8 0.68-1.44 0.4-2.72 0.84-3.68 1.32-3.68 2.08 0 0.6 0.96 0.6 2.04 0 4.96-0.76 3.44-0.8 6.28-1.36zm-9.36-5.48q2.32-0.36 9.16-1.88-0.28-1.36-0.96-2.16-0.56-0.76-0.56-1.16 0-1.88 2.04-1.88 2.36 0 4.44 1.84 0.68 0.6 1.04 2.16 2.84-0.4 5.12-0.4 1.24 0 2.36 0.2-4.12-3.28-7.4-5.4-2.56 0.32-5.08 0.76-1.68 0.32-3.12 0.52-0.88 2.56-4.64 5.88-1.16 1-2.4 1.52zm12.2-14.32q2.44-0.44 4.52-0.68 1.84-2 1.84-2.72 0-0.92-1.24-0.92-1.12 0-4.28 3.36-0.44 0.56-0.84 0.96z"/>
</g>
<g>
<path d="m25.84 31.96q2.68 0 5.04 2.04 1.68 1.44 1.68 7.64l-0.04 3.96q1.4-0.24 3.88-0.88 1.8-0.44 2.2-1.32 0.6-1.28 2.4-1.28 2.6 0 4.2 1.36 1.72 1.16 1.72 2.4 0 2.08-5.04 3.36-5.12 1.24-9.4 1.52l-0.08 8.84q2.84-0.28 5.16-0.28 5.28 0 8.52 1.72 3.04 1.68 3.04 3.28 0 2.32-2.52 2.32-2.04 0-4.28-0.36-2.68-0.24-6.48-0.24-5.24 0-11.28 0.68-3.56 0.4-4.84 0.4-3.44 0-5.2-0.92-1.36-1.04-1.36-1.56 0-1.24 1.4-2.12 1.64-0.88 2.84-0.88 0.16 0 0.52 0.08 0.48 0.08 0.88 0.08 0.64 0 2.56-0.4 2.28-0.48 4.32-0.84 0-0.2 0-0.32l-0.16-20.16q0-3.24-1.24-4.76-0.64-0.88-0.64-1.32 0-2.04 2.2-2.04z"/>
<path d="m56.16 31.48q1.24 0 2.2 1.72 0.72 1.44 2.56 3.84 0.4 0.52 0.4 1 0 1.4-0.48 2.2 1.8-0.36 4.04-0.84-0.32-0.44-0.56-0.88-0.8-1.6-0.8-3.88 0-3.16 2.96-3.16 0.72 0 1.68 1.72 1.32 2.36 2.56 2.36 0.72 0 2.6-2.04 2.68-2.32 3.8-2.32 2.24 0 4.24 0.76 1.84 0.92 1.84 1.88 0 2.24-2.84 3.76 2.2 0.32 4.04 1.24 1.92 1.04 1.92 2.36 0 1.8-3.6 1.84-1 0.04-1.96 0.12 0.36 0.2 0.76 0.36 5.6 2.72 5.6 5.8 0 2.4-1.88 2.48 0.32 0.44 0.32 0.96 0 1.64-3.44 1.72-4.52 0.16-8.92 0.68v1.88q2.76-0.4 4.52-0.4 4.52 0 7.16 1.52 2.08 1.24 2.08 2.72 0 1.88-1.88 1.88-1.56 0-4.84-0.24-2.32-0.08-4.24-0.08-1 0-2.8 0.16v1.24q0 3.92-3.28 3.92-2.96 0-2.96-3.44v-1.08q-6.96 0.76-11.24 0.76-4.24 0-4.24-3.28 0-1.28 2.2-2.36 1.4-0.64 4.76-1.6-2.36-0.08-3.72-0.72-1.52-0.76-1.52-1.72 0-0.56 0.52-1-2.56-0.24-2.56-3.56 0-0.64 1.08-0.96 0 0 0.84-0.24 1.48-0.36 4.56-2.68-2.8-0.08-4.44-0.92-1.72-0.92-1.72-2.04 0-0.76 1-1.4 0.84-0.48 1.8-0.48 0.16 0 0.48 0.08 0.36 0.08 0.64 0.08 0.4 0 1.6-0.2-0.64-0.4-1.2-1-1.36-1.6-1.36-3.04 0-5.48 1.72-5.48zm10.8 26.64v-2.08q-3.4 0.52-5.8 0.68-1.44 0.4-2.72 0.84-3.68 1.32-3.68 2.08 0 0.6 0.96 0.6 2.04 0 4.96-0.76 3.44-0.8 6.28-1.36zm-9.36-5.48q2.32-0.36 9.16-1.88-0.28-1.36-0.96-2.16-0.56-0.76-0.56-1.16 0-1.88 2.04-1.88 2.36 0 4.44 1.84 0.68 0.6 1.04 2.16 2.84-0.4 5.12-0.4 1.24 0 2.36 0.2-4.12-3.28-7.4-5.4-2.56 0.32-5.08 0.76-1.68 0.32-3.12 0.52-0.88 2.56-4.64 5.88-1.16 1-2.4 1.52zm12.2-14.32q2.44-0.44 4.52-0.68 1.84-2 1.84-2.72 0-0.92-1.24-0.92-1.12 0-4.28 3.36-0.44 0.56-0.84 0.96z"/>
</g>
</svg>
