<?xml version="1.0" encoding="UTF-8" standalone="no"?>
<svg xmlns:rdf="http://www.w3.org/1999/02/22-rdf-syntax-ns#" xmlns="http://www.w3.org/2000/svg" height="100" width="100" version="1.1" xmlns:cc="http://creativecommons.org/ns#" xmlns:dc="http://purl.org/dc/elements/1.1/" viewBox="0 0 100 100">
<g transform="translate(0 -952.362)">
<circle cx="50" cy="1002.36" r="50"/>
<circle cx="50" cy="1002.36" r="46" fill="#eee"/>
</g>
<circle cx="50" cy="50" r="35" fill="#68c0c1"/>
<g stroke="#eee" stroke-width="6" fill="none">
<path d="m14.58 35.38q1.56 0 3.08 1.04 0.88 0.6 1.2 1.24-0.24-1.64-1.04-2.56-0.56-0.76-0.56-1.12 0-1.72 1.88-1.72 2.2 0 4.24 1.72 1.36 1.2 1.36 6.4v1.12q1-0.8 1.28-0.8 2 0 2 2.52 0 1.92-1.56 2.8-0.96 0.48-1.8 0.88l-0.04 3.44q0.04-0.04 0.04-0.04 0.68-0.52 0.88-0.52 1.72 0 1.72 1.56 0 1.04-2.72 4.04l-0.12 9.08q0 3.6-3.12 3.6-2.64 0-2.64-3.12l0.04-4.6q-1.08 0.52-1.92 0.52-2.04 0-2.88-0.96-1.04-1.12-1.04-2.48 0-1.84 0.8-3.28 0.72-1.24 1.4-1.24t0.76 0.76q0.16 0.96 0.96 0.96 0.48 0 2-0.8l0.08-5.12q-0.76 0.12-1.44 0.12-2.32 0-3.4-1.32-1.16-1.28-1.16-2.88 0-1.24 0.72-4.6 0.24-1.04 0.24-1.52 0-0.6-0.24-0.96-0.24-0.4-0.24-0.88 0-1.28 1.24-1.28zm4.32 9.44 0.08-5.36q-0.16 0.48-0.44 0.92-1.6 3.04-1.6 3.44 0 1.12 1.4 1.12 0.24 0 0.56-0.12zm11.32-6.16 0.8 0.16q0.48 0 3-1.32 0.28-0.16 0.52-0.24-0.28-1.32-0.92-2.12-0.6-0.76-0.6-1.16 0-1.88 2.04-1.88 2.36 0 4.48 1.84 0.56 0.48 0.88 1.52 0.88-0.08 1.68-0.08 2.12 0 3.8 1.16 1.52 1.16 1.52 2.44 0 2.04-2.52 2.04l-3.92 0.64-0.08 1.84q2.16-0.76 3.4-0.76 2.44 0 3.88 1.56 1.12 1.28 1.12 2.8 0 1.88-1.88 1.88-0.56 0-1.56-0.12 0.52 1.44 0.8 3.68 0.56 0.2 1 0.4 1.76 0.96 1.76 2.16 0 1.4-2.4 1.64 0.08 1.48 0.08 3.16 0 3.08-0.48 4.92-0.76 3.08-3.92 3.08-1.36 0-4.12-1.44-2.4-1.24-4.4-3-0.16 1.56-0.64 2.36-0.76 1.12-1.76 1.12-1.36 0-2.32-1.4-1.28-1.76-1.28-3.88 0-0.76 0.76-2.32 0.08-0.16 0.12-0.28-1.4-0.12-2.28-0.6-1.24-0.68-1.24-1.52 0-0.52 0.68-1.04 0.6-0.36 1.36-0.36 0.08 0 0.32 0.08 0.28 0.08 0.44 0.08 0.36 0 1.52-0.4 0.04-0.44 0.04-0.84 0-0.96-0.32-2.8 0-0.24 0.04-0.36-2.52-0.64-2.52-3.24 0-0.84 1.16-1.6 1.32-0.8 6.16-2.16l0.12-1.6-2.28 0.36q-2.08 0-3.32-0.84-1.08-0.6-1.08-1.36 0-0.72 0.68-1.28 0.96-0.92 1.68-0.92zm2.64 12.72q0.28 0.44 0.52 0.96 0.24 0.56 0.44 1.48 0.68-0.28 1.4-0.56 2.84-1.16 5.04-1.48-0.16-1.6-0.36-2.52-0.84 0.28-1.76 0.64-3.12 1.2-5.28 1.48zm1.4 7.28q0.04 1.28 0.04 2.68 0 0.52 0 0.92 2.88 1.4 5 1.4 1.24 0 1.24-3.92v-2.32q-2 0.32-4 0.76-1.24 0.32-2.28 0.48zm0.2-13.36q-1.24 0.28-2.28 0.68-1.96 0.76-1.96 1.12 0 0.64 0.8 0.64 1.2 0 3-1.04 0.36-0.2 0.68-0.36-0.16-0.48-0.24-1.04z"/>
<path d="m53.38 36.02h0.64q0.32 0 2.04-1.4 2.64-2.2 5.44-2.2 2.04 0 3.68 1.08 0.52 0.4 0.8 0.76 0.12-0.08 0.16-0.12 0.44-0.32 1.28-0.32 1.64 0 3.72 1.2 1.92 1.2 1.92 2.24 0 0.56-0.6 0.92-3.16 1.88-3.16 2.68 0 1.08 1.12 1.08 0.88 0 2.64-1.08 0.48-0.28 0.96-0.52v-0.56q0-3.04-1.04-4.92-0.56-1.08-0.56-1.8 0-1.28 2.2-1.28 1.84 0 3.44 1.44 1.56 1.36 1.56 3.56v1.2q1.48-0.4 2.68-0.4 1.68 0 2.92 0.92 1.28 0.88 1.28 2.36 0 2.44-3.12 2.52-2.12 0.28-3.76 0.6v2.6q1.12-0.08 2.2-0.08 2.12 0 3.8 1.12 1.52 1.2 1.52 2.48 0 2-2.52 2h-0.08q1.8 4 1.8 11.56 0 3-2.04 3-1.32 0-2-1.04-0.92-1.36-0.96-3.04 0-9.64-1.36-10.12l-0.36 0.04v12.6q0 3.12-2.64 3.12-1.48 0-4.48-2.76-1.36-1.28-2.16-2.12-0.08 0.24-0.12 0.4-1 3.04-2.32 3.04-3.6 0-3.6-4.2 0-0.96 0.52-1.4 0 0 0.4-0.32 0.76-0.6 2.48-4.84 0.68-1.48 1.04-2.68-1.6-0.08-2.64-0.76-0.64-0.36-0.8-0.72-1.04 3.96-3.16 8.24-4.08 7.96-6.56 7.96-1.28 0-2.76-1.44-1.8-1.88-1.8-2.96 0-0.76 1.72-0.76 1.8 0 5.44-6.68-1-0.72-2.2-1.96-0.08-0.12-0.16-0.2-1.36 1.64-3.24 1.64-1.56 0-1.56-2.04 0-1.6 0.84-3.4 2.28-4.76 2.28-9.4 0-0.24-0.04-0.6-1.28-0.16-2.12-0.72-1.12-0.6-1.12-1.32t0.72-1.32q1.04-0.88 1.8-0.88zm18.72 17.12q0.04 0.32 0.04 0.68 0 3.48-1.4 8.24 2.08 0.68 2.48 0.68 0.8 0 0.8-0.8v-8.96l-1.92 0.16zm1.92-5.6v-1.96q-1.08 0.28-2.04 0.28-2.92 0-4.36-1.28-1.44-1.24-1.44-2.8 0-1.6 0.92-3.6 0.32-0.6 0.32-1.08t-0.76-0.92q-0.04-0.04-0.04 0-0.2 1.56-2.32 1.56l-6 1.76q0.4 1 0.56 2.12 1.84-0.92 3.12-0.92 1.76 0 3.04 1.32 1.16 1.2 1.16 3.36 0 2.36-0.52 4.88 0.08-0.08 0.12-0.12 0.96-0.84 1.64-0.84h0.64q0.64 0 3.76-1.08 1.08-0.4 2.2-0.68zm-15.96 2.12q0.76 0.48 1.52 1.16 0.36 0.32 0.64 0.64 0.96-2.8 0.96-4.96 0-1.72-1.24-1.72-0.2 0-0.44 0.24-0.32 0.4-0.56 0.68-0.2 2.08-0.88 3.96z"/>
</g>
<g>
<path d="m14.58 35.38q1.56 0 3.08 1.04 0.88 0.6 1.2 1.24-0.24-1.64-1.04-2.56-0.56-0.76-0.56-1.12 0-1.72 1.88-1.72 2.2 0 4.24 1.72 1.36 1.2 1.36 6.4v1.12q1-0.8 1.28-0.8 2 0 2 2.52 0 1.92-1.56 2.8-0.96 0.48-1.8 0.88l-0.04 3.44q0.04-0.04 0.04-0.04 0.68-0.52 0.88-0.52 1.72 0 1.72 1.56 0 1.04-2.72 4.04l-0.12 9.08q0 3.6-3.12 3.6-2.64 0-2.64-3.12l0.04-4.6q-1.08 0.52-1.92 0.52-2.04 0-2.88-0.96-1.04-1.12-1.04-2.48 0-1.84 0.8-3.28 0.72-1.24 1.4-1.24t0.76 0.76q0.16 0.96 0.96 0.96 0.48 0 2-0.8l0.08-5.12q-0.76 0.12-1.44 0.12-2.32 0-3.4-1.32-1.16-1.28-1.16-2.88 0-1.24 0.72-4.6 0.24-1.04 0.24-1.52 0-0.6-0.24-0.96-0.24-0.4-0.24-0.88 0-1.28 1.24-1.28zm4.32 9.44 0.08-5.36q-0.16 0.48-0.44 0.92-1.6 3.04-1.6 3.44 0 1.12 1.4 1.12 0.24 0 0.56-0.12zm11.32-6.16 0.8 0.16q0.48 0 3-1.32 0.28-0.16 0.52-0.24-0.28-1.32-0.92-2.12-0.6-0.76-0.6-1.16 0-1.88 2.04-1.88 2.36 0 4.48 1.84 0.56 0.48 0.88 1.52 0.88-0.08 1.68-0.08 2.12 0 3.8 1.16 1.52 1.16 1.52 2.44 0 2.04-2.52 2.04l-3.92 0.64-0.08 1.84q2.16-0.76 3.4-0.76 2.44 0 3.88 1.56 1.12 1.28 1.12 2.8 0 1.88-1.88 1.88-0.56 0-1.56-0.12 0.52 1.44 0.8 3.68 0.56 0.2 1 0.4 1.76 0.96 1.76 2.16 0 1.4-2.4 1.64 0.08 1.48 0.08 3.16 0 3.08-0.48 4.92-0.76 3.08-3.92 3.08-1.36 0-4.12-1.44-2.4-1.24-4.4-3-0.16 1.56-0.64 2.36-0.76 1.12-1.76 1.12-1.36 0-2.32-1.4-1.28-1.76-1.28-3.88 0-0.76 0.76-2.32 0.08-0.16 0.12-0.28-1.4-0.12-2.28-0.6-1.24-0.68-1.24-1.52 0-0.52 0.68-1.04 0.6-0.36 1.36-0.36 0.08 0 0.32 0.08 0.28 0.08 0.44 0.08 0.36 0 1.52-0.4 0.04-0.44 0.04-0.84 0-0.96-0.32-2.8 0-0.24 0.04-0.36-2.52-0.64-2.52-3.24 0-0.84 1.16-1.6 1.32-0.8 6.16-2.16l0.12-1.6-2.28 0.36q-2.08 0-3.32-0.84-1.08-0.6-1.08-1.36 0-0.72 0.68-1.28 0.96-0.92 1.68-0.92zm2.64 12.72q0.28 0.44 0.52 0.96 0.24 0.56 0.44 1.48 0.68-0.28 1.4-0.56 2.84-1.16 5.04-1.48-0.16-1.6-0.36-2.52-0.84 0.28-1.76 0.64-3.12 1.2-5.28 1.48zm1.4 7.28q0.04 1.28 0.04 2.68 0 0.52 0 0.92 2.88 1.4 5 1.4 1.24 0 1.24-3.92v-2.32q-2 0.32-4 0.76-1.24 0.32-2.28 0.48zm0.2-13.36q-1.24 0.28-2.28 0.68-1.96 0.76-1.96 1.12 0 0.64 0.8 0.64 1.2 0 3-1.04 0.36-0.2 0.68-0.36-0.16-0.48-0.24-1.04z"/>
<path d="m53.38 36.02h0.64q0.32 0 2.04-1.4 2.64-2.2 5.44-2.2 2.04 0 3.68 1.08 0.52 0.4 0.8 0.76 0.12-0.08 0.16-0.12 0.44-0.32 1.28-0.32 1.64 0 3.72 1.2 1.92 1.2 1.92 2.24 0 0.56-0.6 0.92-3.16 1.88-3.16 2.68 0 1.08 1.12 1.08 0.88 0 2.64-1.08 0.48-0.28 0.96-0.52v-0.56q0-3.04-1.04-4.92-0.56-1.08-0.56-1.8 0-1.28 2.2-1.28 1.84 0 3.44 1.44 1.56 1.36 1.56 3.56v1.2q1.48-0.4 2.68-0.4 1.68 0 2.92 0.92 1.28 0.88 1.28 2.36 0 2.44-3.12 2.52-2.12 0.28-3.76 0.6v2.6q1.12-0.08 2.2-0.08 2.12 0 3.8 1.12 1.52 1.2 1.52 2.48 0 2-2.52 2h-0.08q1.8 4 1.8 11.56 0 3-2.04 3-1.32 0-2-1.04-0.92-1.36-0.96-3.04 0-9.64-1.36-10.12l-0.36 0.04v12.6q0 3.12-2.64 3.12-1.48 0-4.48-2.76-1.36-1.28-2.16-2.12-0.08 0.24-0.12 0.4-1 3.04-2.32 3.04-3.6 0-3.6-4.2 0-0.96 0.52-1.4 0 0 0.4-0.32 0.76-0.6 2.48-4.84 0.68-1.48 1.04-2.68-1.6-0.08-2.64-0.76-0.64-0.36-0.8-0.72-1.04 3.96-3.16 8.24-4.08 7.96-6.56 7.96-1.28 0-2.76-1.44-1.8-1.88-1.8-2.96 0-0.76 1.72-0.76 1.8 0 5.44-6.68-1-0.72-2.2-1.96-0.08-0.12-0.16-0.2-1.36 1.64-3.24 1.64-1.56 0-1.56-2.04 0-1.6 0.84-3.4 2.28-4.76 2.28-9.4 0-0.24-0.04-0.6-1.28-0.16-2.12-0.72-1.12-0.6-1.12-1.32t0.72-1.32q1.04-0.88 1.8-0.88zm18.72 17.12q0.04 0.32 0.04 0.68 0 3.48-1.4 8.24 2.08 0.68 2.48 0.68 0.8 0 0.8-0.8v-8.96l-1.92 0.16zm1.92-5.6v-1.96q-1.08 0.28-2.04 0.28-2.92 0-4.36-1.28-1.44-1.24-1.44-2.8 0-1.6 0.92-3.6 0.32-0.6 0.32-1.08t-0.76-0.92q-0.04-0.04-0.04 0-0.2 1.56-2.32 1.56l-6 1.76q0.4 1 0.56 2.12 1.84-0.92 3.12-0.92 1.76 0 3.04 1.32 1.16 1.2 1.16 3.36 0 2.36-0.52 4.88 0.08-0.08 0.12-0.12 0.96-0.84 1.64-0.84h0.64q0.64 0 3.76-1.08 1.08-0.4 2.2-0.68zm-15.96 2.12q0.76 0.48 1.52 1.16 0.36 0.32 0.64 0.64 0.96-2.8 0.96-4.96 0-1.72-1.24-1.72-0.2 0-0.44 0.24-0.32 0.4-0.56 0.68-0.2 2.08-0.88 3.96z"/>
</g>
</svg>
