<?xml version="1.0" encoding="UTF-8" standalone="no"?>
<!-- Created with Inkscape (http://www.inkscape.org/) -->

<svg
   xmlns:dc="http://purl.org/dc/elements/1.1/"
   xmlns:cc="http://creativecommons.org/ns#"
   xmlns:rdf="http://www.w3.org/1999/02/22-rdf-syntax-ns#"
   xmlns:svg="http://www.w3.org/2000/svg"
   xmlns="http://www.w3.org/2000/svg"
   xmlns:sodipodi="http://sodipodi.sourceforge.net/DTD/sodipodi-0.dtd"
   xmlns:inkscape="http://www.inkscape.org/namespaces/inkscape"
   width="100"
   height="100"
   viewBox="0 0 100 100"
   id="svg2"
   version="1.1"
   inkscape:version="0.91 r13725"
   sodipodi:docname="kat.svg">
  <defs
     id="defs4" />
  <sodipodi:namedview
     id="base"
     pagecolor="#ffffff"
     bordercolor="#666666"
     borderopacity="1.0"
     inkscape:pageopacity="0.0"
     inkscape:pageshadow="2"
     inkscape:zoom="5.6568542"
     inkscape:cx="54.676367"
     inkscape:cy="48.717877"
     inkscape:document-units="px"
     inkscape:current-layer="layer2"
     showgrid="false"
     units="px"
     showguides="false"
     inkscape:window-width="1920"
     inkscape:window-height="1168"
     inkscape:window-x="0"
     inkscape:window-y="0"
     inkscape:window-maximized="1" />
  <metadata
     id="metadata7">
    <rdf:RDF>
      <cc:Work
         rdf:about="">
        <dc:format>image/svg+xml</dc:format>
        <dc:type
           rdf:resource="http://purl.org/dc/dcmitype/StillImage" />
        <dc:title></dc:title>
      </cc:Work>
    </rdf:RDF>
  </metadata>
  <g
     inkscape:label="Layer 1"
     inkscape:groupmode="layer"
     id="layer1"
     transform="translate(0,-952.36216)"
     sodipodi:insensitive="true">
    <circle
       style="opacity:1;fill:#000000;fill-opacity:1;stroke:none;stroke-width:3.5668788;stroke-linecap:square;stroke-linejoin:miter;stroke-miterlimit:4;stroke-dasharray:none;stroke-opacity:1"
       id="path4140"
       cx="50"
       cy="1002.3622"
       r="50" />
    <circle
       style="opacity:1;fill:#eeeeee;fill-opacity:1;stroke:none;stroke-width:20;stroke-linecap:square;stroke-linejoin:miter;stroke-miterlimit:4;stroke-dasharray:none;stroke-opacity:1"
       id="path4142"
       cx="50"
       cy="1002.3622"
       r="46" />
  </g>
  <g
     inkscape:groupmode="layer"
     id="layer2"
     inkscape:label="Layer 2"
     sodipodi:insensitive="true">
    <circle
       style="opacity:1;fill:#68c0c1;fill-opacity:1;stroke:none;stroke-width:20;stroke-linecap:square;stroke-linejoin:miter;stroke-miterlimit:4;stroke-dasharray:none;stroke-opacity:1"
       id="path4144"
       cx="50"
       cy="50.000023"
       r="35" />
  </g>
  <g
     inkscape:groupmode="layer"
     id="layer3"
     inkscape:label="kaixin"
     sodipodi:insensitive="true">
    <g
       transform="matrix(0.34740404,0,0,0.34740404,-81.235924,-133.57112)"
       id="g4829">
      <path
         sodipodi:nodetypes="cssscc"
         inkscape:connector-curvature="0"
         id="path4761"
         d="m 317.67857,491.82649 c 0,0 14.74296,-30.29848 33.39286,-6.25 6.42979,8.29102 5.1327,24.09061 -3.65436,27.41519 -7.39185,2.79671 -18.53125,-2.17137 -18.15116,-12.59005 0.16466,-4.51351 3.75353,-8.38492 7.02928,-8.64725 -5.56308,-7.64907 -18.61662,0.0721 -18.61662,0.0721 z"
         style="fill:#000000;fill-opacity:1;fill-rule:evenodd;stroke:none;stroke-width:1px;stroke-linecap:butt;stroke-linejoin:miter;stroke-opacity:1" />
      <path
         sodipodi:nodetypes="ccc"
         inkscape:connector-curvature="0"
         id="path4778"
         d="m 381.58512,470.51434 c 0,0 20.20306,-16.66752 35.86042,-0.50508 -16.16244,-30.80965 -35.86042,0.50508 -35.86042,0.50508 z"
         style="fill:#000000;fill-opacity:1;fill-rule:evenodd;stroke:none;stroke-width:1px;stroke-linecap:butt;stroke-linejoin:miter;stroke-opacity:1" />
      <path
         sodipodi:nodetypes="cssscc"
         inkscape:connector-curvature="0"
         id="path4761-4"
         d="m 383.66751,491.67885 c 0,0 14.74296,-30.29848 33.39286,-6.25 6.42979,8.29102 5.1327,24.09061 -3.65436,27.41519 -7.39185,2.79671 -18.53125,-2.17137 -18.15116,-12.59005 0.16466,-4.51351 3.75353,-8.38492 7.02928,-8.64725 -5.56308,-7.64907 -18.61662,0.0721 -18.61662,0.0721 z"
         style="fill:#000000;fill-opacity:1;fill-rule:evenodd;stroke:none;stroke-width:1px;stroke-linecap:butt;stroke-linejoin:miter;stroke-opacity:1" />
      <path
         sodipodi:nodetypes="ccc"
         inkscape:connector-curvature="0"
         id="path4778-7"
         d="m 312.88498,471.03871 c 0,0 20.20306,-16.66752 35.86042,-0.50508 -16.16244,-30.80965 -35.86042,0.50508 -35.86042,0.50508 z"
         style="fill:#000000;fill-opacity:1;fill-rule:evenodd;stroke:none;stroke-width:1px;stroke-linecap:butt;stroke-linejoin:miter;stroke-opacity:1" />
      <ellipse
         ry="9.5964489"
         rx="21.844549"
         cy="520.2644"
         cx="325.39539"
         id="path4810"
         style="opacity:1;fill:#000000;fill-opacity:0.4;stroke:none;stroke-width:6;stroke-linecap:square;stroke-linejoin:miter;stroke-miterlimit:4;stroke-dasharray:none;stroke-opacity:1" />
      <ellipse
         ry="9.5964489"
         rx="21.844549"
         cy="523.2948"
         cx="418.20316"
         id="path4810-7"
         style="opacity:1;fill:#000000;fill-opacity:0.4;stroke:none;stroke-width:6;stroke-linecap:square;stroke-linejoin:miter;stroke-miterlimit:4;stroke-dasharray:none;stroke-opacity:1" />
      <path
         sodipodi:nodetypes="cssccc"
         inkscape:connector-curvature="0"
         id="path4827"
         d="m 325.26912,565.97375 c 0,0 26.51953,46.6103 86.87312,31.31473 28.51858,-7.22754 38.57491,-24.06991 39.71589,-36.78397 1.14098,-12.71406 -6.6334,-21.2998 -6.6334,-21.2998 0,0 15.818,35.29406 -40.24547,49.68874 -47.72971,11.86929 -79.71014,-22.9197 -79.71014,-22.9197 z"
         style="fill:#000000;fill-opacity:1;fill-rule:evenodd;stroke:none;stroke-width:1px;stroke-linecap:butt;stroke-linejoin:miter;stroke-opacity:1" />
    </g>
  </g>
</svg>
